<svg xmlns="http://www.w3.org/2000/svg" xmlns:xlink="http://www.w3.org/1999/xlink" width="2000" zoomAndPan="magnify" viewBox="0 0 1500 1499.999933" height="2000" preserveAspectRatio="xMidYMid meet" version="1.0"><defs><g/><clipPath id="b5ca5c5504"><path d="M 159.285156 603 L 299 603 L 299 642 L 159.285156 642 Z M 159.285156 603 " clip-rule="nonzero"/></clipPath><clipPath id="978e5d537c"><path d="M 365 942 L 450 942 L 450 1070.714844 L 365 1070.714844 Z M 365 942 " clip-rule="nonzero"/></clipPath><clipPath id="2c0cda2c07"><rect x="0" width="567" y="0" height="268"/></clipPath><clipPath id="990ccd5999"><rect x="0" width="646" y="0" height="139"/></clipPath></defs><rect x="-150" width="1800" fill="#ffffff" y="-149.999993" height="1799.99992" fill-opacity="1"/><rect x="-150" width="1800" fill="#ffffff" y="-149.999993" height="1799.99992" fill-opacity="1"/><path fill="#004aad" d="M 565.851562 331.015625 C 589.042969 304.253906 609.023438 273.617188 635.972656 251.402344 C 788.25 125.785156 1007.585938 175.070312 1094.949219 352.113281 C 1101.375 365.148438 1113.101562 378.707031 1125.824219 384.984375 C 1259.363281 450.921875 1325.390625 578.246094 1297.324219 718.96875 C 1271.089844 850.433594 1157.984375 945.816406 1014.554688 953.167969 C 957.941406 956.066406 900.476562 955.710938 844.21875 949.359375 C 678.667969 930.664062 569.347656 795.367188 581.335938 628.984375 C 584.046875 591.425781 609.210938 565.117188 640.46875 567.140625 C 671.675781 569.160156 693.273438 593.472656 688.824219 632.886719 C 676.550781 741.539062 759.375 852.550781 902.617188 845.746094 C 948 843.582031 994.027344 846.722656 1038.695312 840.132812 C 1127.824219 826.980469 1192.1875 751.839844 1195.710938 663.808594 C 1199.132812 577.722656 1138.457031 496.421875 1051.304688 476.632812 C 1022.355469 470.066406 1012.554688 456.84375 1005.730469 429.464844 C 976.757812 313.363281 845.054688 255.113281 740.464844 312.722656 C 712.015625 328.375 685.042969 335.128906 653.480469 333.820312 C 626.625 332.703125 599.601562 336.152344 572.652344 337.554688 C 570.371094 335.367188 568.109375 333.179688 565.851562 331.015625 Z M 565.851562 331.015625 " fill-opacity="1" fill-rule="nonzero"/><path fill="#cc0000" d="M 712.0625 942.535156 C 529.933594 992.699219 345.234375 839.421875 353.226562 648.464844 C 359.789062 491.378906 479.246094 368.476562 632.285156 361.363281 C 785.609375 354.253906 918.148438 463.71875 940.460938 618.066406 C 944.480469 645.800781 943.171875 675.128906 939.152344 702.984375 C 933.988281 738.734375 909.65625 754.957031 876.425781 750.578125 C 847.457031 746.773438 830.851562 727.195312 833.492188 691.636719 C 838.605469 622.871094 823.359375 561.953125 769.246094 516.308594 C 708.851562 465.382812 640.085938 454.703125 568.464844 488.503906 C 499.867188 520.898438 462.261719 577.84375 461.617188 654.078125 C 460.953125 732.761719 498.652344 789.660156 568.753906 826.957031 C 593.800781 840.277344 615.230469 860.636719 637.519531 878.785156 C 662.019531 898.742188 685.613281 919.84375 712.0625 942.535156 Z M 712.0625 942.535156 " fill-opacity="1" fill-rule="nonzero"/><g clip-path="url(#b5ca5c5504)"><path fill="#cc0000" d="M 227.632812 640.378906 C 211.839844 640.378906 195.710938 642.304688 180.417969 639.570312 C 172.710938 638.1875 166.480469 628.367188 159.605469 622.371094 C 165.3125 616.210938 170.785156 604.984375 176.777344 604.699219 C 211.53125 602.984375 246.449219 602.796875 281.175781 604.792969 C 287.242188 605.148438 292.59375 618.28125 298.253906 625.511719 C 291.617188 630.484375 285.433594 638.808594 278.273438 639.710938 C 261.648438 641.828125 244.546875 640.378906 227.632812 640.378906 Z M 227.632812 640.378906 " fill-opacity="1" fill-rule="nonzero"/></g><g clip-path="url(#978e5d537c)"><path fill="#cc0000" d="M 376.535156 1070.621094 C 372.113281 1059.539062 362.597656 1047.242188 365.59375 1041.269531 C 381.886719 1008.898438 400.75 977.738281 420.253906 947.125 C 423.039062 942.773438 435.761719 940.558594 440.972656 943.152344 C 445.992188 945.671875 451.605469 957.949219 449.488281 962.109375 C 432.410156 995.316406 413.738281 1027.710938 394.992188 1060.015625 C 393.066406 1063.34375 387.476562 1064.507812 376.535156 1070.621094 Z M 376.535156 1070.621094 " fill-opacity="1" fill-rule="nonzero"/></g><path fill="#cc0000" d="M 514.636719 317.097656 C 509.546875 325.636719 507.359375 334.226562 502.769531 335.769531 C 496.5625 337.863281 484.476562 337.175781 481.933594 333.179688 C 462 301.921875 443.183594 269.929688 425.605469 237.296875 C 423.109375 232.632812 427.082031 220.742188 431.839844 217.03125 C 436.167969 213.652344 449.796875 214.105469 452.175781 217.648438 C 473.894531 250.164062 494.015625 283.75 514.636719 317.097656 Z M 514.636719 317.097656 " fill-opacity="1" fill-rule="nonzero"/><path fill="#cc0000" d="M 329.652344 802.410156 C 329.390625 828.789062 228.800781 887.96875 215.597656 876.171875 C 210.4375 871.578125 210.652344 850.265625 215.527344 846.914062 C 243.476562 827.71875 272.996094 810.496094 303.371094 795.390625 C 310.003906 792.109375 322.328125 800.246094 329.652344 802.410156 Z M 329.652344 802.410156 " fill-opacity="1" fill-rule="nonzero"/><path fill="#cc0000" d="M 369.304688 450.96875 C 356.886719 454.109375 344.449219 461.695312 337.480469 458.222656 C 307.175781 443.164062 278.011719 425.585938 249.636719 407.082031 C 244.59375 403.800781 242.359375 390.929688 244.308594 384.035156 C 245.519531 379.75 259.316406 374.113281 263.574219 376.375 C 296.351562 393.855469 328.25 412.933594 360.097656 432.105469 C 363.238281 434.03125 364.023438 439.835938 369.304688 450.96875 Z M 369.304688 450.96875 " fill-opacity="1" fill-rule="nonzero"/><g transform="matrix(1, 0, 0, 1, 70, 1000)"><g clip-path="url(#2c0cda2c07)"><g fill="#2dabe3" fill-opacity="0.4"><g transform="translate(9.346427, 238.160468)"><g><path d="M 105.765625 -193.265625 C 113.929688 -193.265625 121.390625 -191.78125 128.140625 -188.8125 C 134.890625 -185.84375 140.304688 -181.460938 144.390625 -175.671875 C 148.472656 -169.890625 150.515625 -162.691406 150.515625 -154.078125 C 150.515625 -149.035156 149.476562 -143.617188 147.40625 -137.828125 L 129.8125 -88.390625 C 126.539062 -79.046875 121.9375 -71.289062 116 -65.125 C 110.0625 -58.96875 103.457031 -54.367188 96.1875 -51.328125 C 88.914062 -48.285156 81.644531 -46.765625 74.375 -46.765625 C 68.132812 -46.765625 62.269531 -47.835938 56.78125 -49.984375 C 51.289062 -52.140625 46.613281 -55.070312 42.75 -58.78125 L 27.828125 -14.921875 C 26.046875 -9.722656 23.410156 -5.9375 19.921875 -3.5625 C 16.441406 -1.1875 12.84375 0 9.125 0 C 4.675781 0 0.707031 -1.410156 -2.78125 -4.234375 C -6.269531 -7.054688 -8.015625 -10.914062 -8.015625 -15.8125 C -8.015625 -17 -7.863281 -18.1875 -7.5625 -19.375 C -7.269531 -20.5625 -6.898438 -21.820312 -6.453125 -23.15625 L 49.875 -184.578125 C 51.957031 -190.222656 54.851562 -194.234375 58.5625 -196.609375 C 62.269531 -198.984375 66.128906 -200.171875 70.140625 -200.171875 C 74.148438 -200.171875 77.75 -199.054688 80.9375 -196.828125 C 84.125 -194.597656 85.796875 -191.628906 85.953125 -187.921875 C 88.765625 -190.003906 91.988281 -191.414062 95.625 -192.15625 C 99.269531 -192.894531 102.648438 -193.265625 105.765625 -193.265625 Z M 110.4375 -136.71875 C 111.175781 -138.789062 111.65625 -140.71875 111.875 -142.5 C 112.101562 -144.28125 112.21875 -145.914062 112.21875 -147.40625 C 112.21875 -152.75 110.734375 -156.828125 107.765625 -159.640625 C 104.796875 -162.460938 101.085938 -163.875 96.640625 -163.875 C 92.179688 -163.875 87.875 -162.648438 83.71875 -160.203125 C 79.5625 -157.753906 76.445312 -153.488281 74.375 -147.40625 L 59 -102.203125 C 58.40625 -100.566406 58.109375 -98.929688 58.109375 -97.296875 C 58.109375 -92.253906 59.851562 -88.097656 63.34375 -84.828125 C 66.832031 -81.566406 71.023438 -79.9375 75.921875 -79.9375 C 80.234375 -79.9375 84.316406 -81.382812 88.171875 -84.28125 C 92.035156 -87.175781 94.929688 -91.367188 96.859375 -96.859375 Z M 110.4375 -136.71875 "/></g></g></g><g fill="#2dabe3" fill-opacity="0.4"><g transform="translate(138.253904, 238.160468)"><g><path d="M 112.671875 -62.796875 C 113.703125 -66.203125 115.664062 -68.757812 118.5625 -70.46875 C 121.457031 -72.175781 124.460938 -73.03125 127.578125 -73.03125 C 130.992188 -73.03125 134 -72.101562 136.59375 -70.25 C 139.195312 -68.394531 140.5 -65.757812 140.5 -62.34375 C 140.5 -60.863281 140.203125 -59.304688 139.609375 -57.671875 C 134.710938 -43.566406 127.882812 -32.285156 119.125 -23.828125 C 110.363281 -15.367188 100.710938 -9.28125 90.171875 -5.5625 C 79.640625 -1.851562 69.175781 0 58.78125 0 C 47.945312 0 38.1875 -1.742188 29.5 -5.234375 C 20.820312 -8.722656 13.957031 -13.695312 8.90625 -20.15625 C 3.863281 -26.613281 1.34375 -34.21875 1.34375 -42.96875 C 1.34375 -45.5 1.597656 -48.097656 2.109375 -50.765625 C 2.628906 -53.441406 3.335938 -56.113281 4.234375 -58.78125 L 17.375 -96.859375 C 21.226562 -107.992188 27.535156 -116.414062 36.296875 -122.125 C 45.054688 -127.84375 54.40625 -130.703125 64.34375 -130.703125 C 72.8125 -130.703125 80.160156 -129.066406 86.390625 -125.796875 C 92.628906 -122.535156 97.488281 -118.082031 100.96875 -112.4375 C 104.457031 -106.800781 106.203125 -100.421875 106.203125 -93.296875 C 106.203125 -89.585938 105.609375 -85.503906 104.421875 -81.046875 C 101.453125 -71.097656 95.882812 -63.15625 87.71875 -57.21875 C 79.5625 -51.28125 70.4375 -48.3125 60.34375 -48.3125 C 55.882812 -48.3125 51.6875 -48.941406 47.75 -50.203125 C 43.820312 -51.472656 40.226562 -53.070312 36.96875 -55 L 35.1875 -50.765625 C 34.738281 -49.722656 34.4375 -48.679688 34.28125 -47.640625 C 34.132812 -46.609375 34.0625 -45.570312 34.0625 -44.53125 C 34.0625 -39.488281 36.4375 -35.222656 41.1875 -31.734375 C 45.9375 -28.242188 52.394531 -26.5 60.5625 -26.5 C 66.945312 -26.5 73.515625 -27.722656 80.265625 -30.171875 C 87.023438 -32.617188 93.296875 -36.515625 99.078125 -41.859375 C 104.867188 -47.203125 109.398438 -54.179688 112.671875 -62.796875 Z M 63.6875 -104.421875 C 61.15625 -104.421875 58.628906 -103.457031 56.109375 -101.53125 C 53.585938 -99.601562 51.734375 -96.929688 50.546875 -93.515625 L 45.875 -80.15625 C 48.988281 -78.375 52.847656 -77.484375 57.453125 -77.484375 C 60.859375 -77.484375 64.046875 -78.222656 67.015625 -79.703125 C 69.984375 -81.191406 71.988281 -83.789062 73.03125 -87.5 C 73.625 -89.132812 73.921875 -90.914062 73.921875 -92.84375 C 73.921875 -96.113281 72.992188 -98.859375 71.140625 -101.078125 C 69.285156 -103.304688 66.800781 -104.421875 63.6875 -104.421875 Z M 63.6875 -104.421875 "/></g></g></g><g fill="#2dabe3" fill-opacity="0.4"><g transform="translate(243.784361, 238.160468)"><g><path d="M 139.609375 -75.265625 C 142.867188 -75.265625 145.722656 -74.296875 148.171875 -72.359375 C 150.628906 -70.429688 151.859375 -67.539062 151.859375 -63.6875 C 151.859375 -61.75 151.335938 -59.296875 150.296875 -56.328125 C 149.253906 -53.359375 147.914062 -49.722656 146.28125 -45.421875 C 141.53125 -33.398438 135.851562 -24.125 129.25 -17.59375 C 122.644531 -11.0625 115.816406 -6.492188 108.765625 -3.890625 C 101.710938 -1.296875 95.070312 0 88.84375 0 C 86.613281 0 83.601562 -0.296875 79.8125 -0.890625 C 76.03125 -1.484375 72.25 -2.632812 68.46875 -4.34375 C 64.6875 -6.050781 61.609375 -8.613281 59.234375 -12.03125 C 55.078125 -8.3125 50.4375 -5.375 45.3125 -3.21875 C 40.1875 -1.070312 35.03125 0 29.84375 0 C 23.3125 0 17.445312 -1.519531 12.25 -4.5625 C 7.050781 -7.601562 2.929688 -11.6875 -0.109375 -16.8125 C -3.148438 -21.9375 -4.671875 -27.539062 -4.671875 -33.625 C -4.671875 -35.695312 -4.445312 -37.734375 -4 -39.734375 C -3.5625 -41.742188 -3.046875 -43.710938 -2.453125 -45.640625 L 18.484375 -105.546875 C 21.453125 -114.148438 26.5 -120.492188 33.625 -124.578125 C 40.75 -128.660156 47.945312 -130.703125 55.21875 -130.703125 C 60.863281 -130.703125 65.800781 -130.03125 70.03125 -128.6875 C 74.257812 -127.351562 77.5625 -125.945312 79.9375 -124.46875 C 81.71875 -127.289062 84.09375 -129.40625 87.0625 -130.8125 C 90.03125 -132.21875 93.070312 -132.921875 96.1875 -132.921875 C 100.34375 -132.921875 104.085938 -131.660156 107.421875 -129.140625 C 110.765625 -126.617188 112.4375 -122.910156 112.4375 -118.015625 C 112.4375 -115.785156 111.992188 -113.332031 111.109375 -110.65625 L 86.171875 -38.515625 C 85.429688 -35.847656 85.0625 -33.695312 85.0625 -32.0625 C 85.0625 -28.351562 87.0625 -26.5 91.0625 -26.5 C 94.476562 -26.5 98.148438 -27.648438 102.078125 -29.953125 C 106.015625 -32.253906 109.910156 -36.078125 113.765625 -41.421875 C 117.628906 -46.765625 120.972656 -53.960938 123.796875 -63.015625 C 125.128906 -67.316406 127.316406 -70.429688 130.359375 -72.359375 C 133.410156 -74.296875 136.492188 -75.265625 139.609375 -75.265625 Z M 66.125 -77.484375 C 67.90625 -83.128906 68.796875 -87.507812 68.796875 -90.625 C 68.796875 -94.476562 67.832031 -97.40625 65.90625 -99.40625 C 63.976562 -101.414062 61.972656 -102.421875 59.890625 -102.421875 C 58.109375 -102.421875 55.84375 -101.566406 53.09375 -99.859375 C 50.351562 -98.148438 47.945312 -93.882812 45.875 -87.0625 L 31.625 -42.3125 C 31.320312 -41.269531 31.019531 -40.117188 30.71875 -38.859375 C 30.425781 -37.597656 30.28125 -36.222656 30.28125 -34.734375 C 30.28125 -29.242188 32.726562 -26.5 37.625 -26.5 C 40 -26.5 42.96875 -27.648438 46.53125 -29.953125 C 50.09375 -32.253906 53.0625 -37.039062 55.4375 -44.3125 Z M 66.125 -77.484375 "/></g></g></g><g fill="#2dabe3" fill-opacity="0.4"><g transform="translate(360.669376, 238.160468)"><g><path d="M 112.890625 -64.578125 C 113.929688 -67.984375 115.710938 -70.390625 118.234375 -71.796875 C 120.753906 -73.210938 123.425781 -73.921875 126.25 -73.921875 C 129.8125 -73.921875 133.113281 -72.914062 136.15625 -70.90625 C 139.195312 -68.90625 140.71875 -66.203125 140.71875 -62.796875 C 140.71875 -61.753906 140.492188 -60.566406 140.046875 -59.234375 C 133.515625 -40.378906 125.015625 -25.789062 114.546875 -15.46875 C 104.085938 -5.15625 92.773438 0 80.609375 0 C 74.515625 0 68.867188 -1.332031 63.671875 -4 C 58.484375 -6.675781 54.367188 -10.425781 51.328125 -15.25 C 48.285156 -20.070312 46.765625 -25.675781 46.765625 -32.0625 C 46.765625 -36.519531 47.65625 -41.269531 49.4375 -46.3125 L 59.234375 -73.484375 C 59.671875 -75.109375 59.890625 -76.441406 59.890625 -77.484375 C 59.890625 -80.003906 59.109375 -81.929688 57.546875 -83.265625 C 55.992188 -84.609375 54.101562 -85.6875 51.875 -86.5 C 49.65625 -87.320312 47.503906 -88.03125 45.421875 -88.625 L 32.953125 -55.21875 C 31.617188 -51.65625 29.503906 -48.984375 26.609375 -47.203125 C 23.710938 -45.421875 20.707031 -44.53125 17.59375 -44.53125 C 14.476562 -44.53125 11.691406 -45.457031 9.234375 -47.3125 C 6.785156 -49.164062 5.5625 -51.953125 5.5625 -55.671875 C 5.5625 -57.148438 5.785156 -58.78125 6.234375 -60.5625 L 22.484375 -104.421875 C 18.773438 -109.023438 16.921875 -114.296875 16.921875 -120.234375 C 16.921875 -126.617188 18.773438 -132.257812 22.484375 -137.15625 C 26.203125 -142.050781 31.328125 -144.5 37.859375 -144.5 C 42.898438 -144.5 47.347656 -142.644531 51.203125 -138.9375 C 55.066406 -135.226562 57 -130.773438 57 -125.578125 C 57 -123.503906 56.703125 -121.648438 56.109375 -120.015625 C 59.222656 -119.117188 62.96875 -117.816406 67.34375 -116.109375 C 71.726562 -114.410156 76.070312 -112.222656 80.375 -109.546875 C 84.6875 -106.878906 88.25 -103.648438 91.0625 -99.859375 C 93.882812 -96.078125 95.296875 -91.515625 95.296875 -86.171875 C 95.296875 -84.242188 95.109375 -82.273438 94.734375 -80.265625 C 94.367188 -78.265625 93.816406 -76.148438 93.078125 -73.921875 L 79.9375 -37.40625 C 79.34375 -35.769531 79.046875 -34.140625 79.046875 -32.515625 C 79.046875 -31.023438 79.453125 -29.648438 80.265625 -28.390625 C 81.085938 -27.128906 82.238281 -26.5 83.71875 -26.5 C 88.46875 -26.5 93.476562 -30.132812 98.75 -37.40625 C 104.019531 -44.675781 108.734375 -53.734375 112.890625 -64.578125 Z M 112.890625 -64.578125 "/></g></g></g><g fill="#2dabe3" fill-opacity="0.4"><g transform="translate(465.977206, 238.160468)"><g><path d="M 30.5 -36.296875 C 30.351562 -35.703125 30.164062 -35.03125 29.9375 -34.28125 C 29.71875 -33.539062 29.609375 -32.953125 29.609375 -32.515625 C 29.609375 -30.878906 30.203125 -29.46875 31.390625 -28.28125 C 32.578125 -27.09375 34.285156 -26.5 36.515625 -26.5 C 41.710938 -26.5 47.316406 -29.503906 53.328125 -35.515625 C 59.335938 -41.523438 64.867188 -51.210938 69.921875 -64.578125 C 71.546875 -68.734375 73.691406 -71.703125 76.359375 -73.484375 C 79.035156 -75.265625 81.785156 -76.15625 84.609375 -76.15625 C 88.023438 -76.15625 91.066406 -75.003906 93.734375 -72.703125 C 96.410156 -70.398438 97.75 -67.46875 97.75 -63.90625 C 97.75 -62.570312 97.523438 -61.085938 97.078125 -59.453125 C 91.878906 -44.015625 85.679688 -31.988281 78.484375 -23.375 C 71.285156 -14.769531 63.828125 -8.722656 56.109375 -5.234375 C 48.390625 -1.742188 40.96875 0 33.84375 0 C 27.3125 0 21.257812 -1.222656 15.6875 -3.671875 C 10.125 -6.117188 5.671875 -9.71875 2.328125 -14.46875 C -1.003906 -19.21875 -2.671875 -25.007812 -2.671875 -31.84375 C -2.671875 -36.445312 -1.78125 -41.269531 0 -46.3125 L 46.3125 -178.578125 C 49.726562 -188.367188 55.59375 -193.265625 63.90625 -193.265625 C 67.320312 -193.265625 70.625 -192.003906 73.8125 -189.484375 C 77 -186.960938 78.59375 -183.546875 78.59375 -179.234375 C 78.59375 -176.859375 78.148438 -174.335938 77.265625 -171.671875 Z M 30.5 -36.296875 "/></g></g></g><g fill="#004aad" fill-opacity="1"><g transform="translate(9.346427, 238.160468)"><g><path d="M 105.765625 -193.265625 C 113.929688 -193.265625 121.390625 -191.78125 128.140625 -188.8125 C 134.890625 -185.84375 140.304688 -181.460938 144.390625 -175.671875 C 148.472656 -169.890625 150.515625 -162.691406 150.515625 -154.078125 C 150.515625 -149.035156 149.476562 -143.617188 147.40625 -137.828125 L 129.8125 -88.390625 C 126.539062 -79.046875 121.9375 -71.289062 116 -65.125 C 110.0625 -58.96875 103.457031 -54.367188 96.1875 -51.328125 C 88.914062 -48.285156 81.644531 -46.765625 74.375 -46.765625 C 68.132812 -46.765625 62.269531 -47.835938 56.78125 -49.984375 C 51.289062 -52.140625 46.613281 -55.070312 42.75 -58.78125 L 27.828125 -14.921875 C 26.046875 -9.722656 23.410156 -5.9375 19.921875 -3.5625 C 16.441406 -1.1875 12.84375 0 9.125 0 C 4.675781 0 0.707031 -1.410156 -2.78125 -4.234375 C -6.269531 -7.054688 -8.015625 -10.914062 -8.015625 -15.8125 C -8.015625 -17 -7.863281 -18.1875 -7.5625 -19.375 C -7.269531 -20.5625 -6.898438 -21.820312 -6.453125 -23.15625 L 49.875 -184.578125 C 51.957031 -190.222656 54.851562 -194.234375 58.5625 -196.609375 C 62.269531 -198.984375 66.128906 -200.171875 70.140625 -200.171875 C 74.148438 -200.171875 77.75 -199.054688 80.9375 -196.828125 C 84.125 -194.597656 85.796875 -191.628906 85.953125 -187.921875 C 88.765625 -190.003906 91.988281 -191.414062 95.625 -192.15625 C 99.269531 -192.894531 102.648438 -193.265625 105.765625 -193.265625 Z M 110.4375 -136.71875 C 111.175781 -138.789062 111.65625 -140.71875 111.875 -142.5 C 112.101562 -144.28125 112.21875 -145.914062 112.21875 -147.40625 C 112.21875 -152.75 110.734375 -156.828125 107.765625 -159.640625 C 104.796875 -162.460938 101.085938 -163.875 96.640625 -163.875 C 92.179688 -163.875 87.875 -162.648438 83.71875 -160.203125 C 79.5625 -157.753906 76.445312 -153.488281 74.375 -147.40625 L 59 -102.203125 C 58.40625 -100.566406 58.109375 -98.929688 58.109375 -97.296875 C 58.109375 -92.253906 59.851562 -88.097656 63.34375 -84.828125 C 66.832031 -81.566406 71.023438 -79.9375 75.921875 -79.9375 C 80.234375 -79.9375 84.316406 -81.382812 88.171875 -84.28125 C 92.035156 -87.175781 94.929688 -91.367188 96.859375 -96.859375 Z M 110.4375 -136.71875 "/></g></g></g><g fill="#004aad" fill-opacity="1"><g transform="translate(138.253904, 238.160468)"><g><path d="M 112.671875 -62.796875 C 113.703125 -66.203125 115.664062 -68.757812 118.5625 -70.46875 C 121.457031 -72.175781 124.460938 -73.03125 127.578125 -73.03125 C 130.992188 -73.03125 134 -72.101562 136.59375 -70.25 C 139.195312 -68.394531 140.5 -65.757812 140.5 -62.34375 C 140.5 -60.863281 140.203125 -59.304688 139.609375 -57.671875 C 134.710938 -43.566406 127.882812 -32.285156 119.125 -23.828125 C 110.363281 -15.367188 100.710938 -9.28125 90.171875 -5.5625 C 79.640625 -1.851562 69.175781 0 58.78125 0 C 47.945312 0 38.1875 -1.742188 29.5 -5.234375 C 20.820312 -8.722656 13.957031 -13.695312 8.90625 -20.15625 C 3.863281 -26.613281 1.34375 -34.21875 1.34375 -42.96875 C 1.34375 -45.5 1.597656 -48.097656 2.109375 -50.765625 C 2.628906 -53.441406 3.335938 -56.113281 4.234375 -58.78125 L 17.375 -96.859375 C 21.226562 -107.992188 27.535156 -116.414062 36.296875 -122.125 C 45.054688 -127.84375 54.40625 -130.703125 64.34375 -130.703125 C 72.8125 -130.703125 80.160156 -129.066406 86.390625 -125.796875 C 92.628906 -122.535156 97.488281 -118.082031 100.96875 -112.4375 C 104.457031 -106.800781 106.203125 -100.421875 106.203125 -93.296875 C 106.203125 -89.585938 105.609375 -85.503906 104.421875 -81.046875 C 101.453125 -71.097656 95.882812 -63.15625 87.71875 -57.21875 C 79.5625 -51.28125 70.4375 -48.3125 60.34375 -48.3125 C 55.882812 -48.3125 51.6875 -48.941406 47.75 -50.203125 C 43.820312 -51.472656 40.226562 -53.070312 36.96875 -55 L 35.1875 -50.765625 C 34.738281 -49.722656 34.4375 -48.679688 34.28125 -47.640625 C 34.132812 -46.609375 34.0625 -45.570312 34.0625 -44.53125 C 34.0625 -39.488281 36.4375 -35.222656 41.1875 -31.734375 C 45.9375 -28.242188 52.394531 -26.5 60.5625 -26.5 C 66.945312 -26.5 73.515625 -27.722656 80.265625 -30.171875 C 87.023438 -32.617188 93.296875 -36.515625 99.078125 -41.859375 C 104.867188 -47.203125 109.398438 -54.179688 112.671875 -62.796875 Z M 63.6875 -104.421875 C 61.15625 -104.421875 58.628906 -103.457031 56.109375 -101.53125 C 53.585938 -99.601562 51.734375 -96.929688 50.546875 -93.515625 L 45.875 -80.15625 C 48.988281 -78.375 52.847656 -77.484375 57.453125 -77.484375 C 60.859375 -77.484375 64.046875 -78.222656 67.015625 -79.703125 C 69.984375 -81.191406 71.988281 -83.789062 73.03125 -87.5 C 73.625 -89.132812 73.921875 -90.914062 73.921875 -92.84375 C 73.921875 -96.113281 72.992188 -98.859375 71.140625 -101.078125 C 69.285156 -103.304688 66.800781 -104.421875 63.6875 -104.421875 Z M 63.6875 -104.421875 "/></g></g></g><g fill="#004aad" fill-opacity="1"><g transform="translate(243.784361, 238.160468)"><g><path d="M 139.609375 -75.265625 C 142.867188 -75.265625 145.722656 -74.296875 148.171875 -72.359375 C 150.628906 -70.429688 151.859375 -67.539062 151.859375 -63.6875 C 151.859375 -61.75 151.335938 -59.296875 150.296875 -56.328125 C 149.253906 -53.359375 147.914062 -49.722656 146.28125 -45.421875 C 141.53125 -33.398438 135.851562 -24.125 129.25 -17.59375 C 122.644531 -11.0625 115.816406 -6.492188 108.765625 -3.890625 C 101.710938 -1.296875 95.070312 0 88.84375 0 C 86.613281 0 83.601562 -0.296875 79.8125 -0.890625 C 76.03125 -1.484375 72.25 -2.632812 68.46875 -4.34375 C 64.6875 -6.050781 61.609375 -8.613281 59.234375 -12.03125 C 55.078125 -8.3125 50.4375 -5.375 45.3125 -3.21875 C 40.1875 -1.070312 35.03125 0 29.84375 0 C 23.3125 0 17.445312 -1.519531 12.25 -4.5625 C 7.050781 -7.601562 2.929688 -11.6875 -0.109375 -16.8125 C -3.148438 -21.9375 -4.671875 -27.539062 -4.671875 -33.625 C -4.671875 -35.695312 -4.445312 -37.734375 -4 -39.734375 C -3.5625 -41.742188 -3.046875 -43.710938 -2.453125 -45.640625 L 18.484375 -105.546875 C 21.453125 -114.148438 26.5 -120.492188 33.625 -124.578125 C 40.75 -128.660156 47.945312 -130.703125 55.21875 -130.703125 C 60.863281 -130.703125 65.800781 -130.03125 70.03125 -128.6875 C 74.257812 -127.351562 77.5625 -125.945312 79.9375 -124.46875 C 81.71875 -127.289062 84.09375 -129.40625 87.0625 -130.8125 C 90.03125 -132.21875 93.070312 -132.921875 96.1875 -132.921875 C 100.34375 -132.921875 104.085938 -131.660156 107.421875 -129.140625 C 110.765625 -126.617188 112.4375 -122.910156 112.4375 -118.015625 C 112.4375 -115.785156 111.992188 -113.332031 111.109375 -110.65625 L 86.171875 -38.515625 C 85.429688 -35.847656 85.0625 -33.695312 85.0625 -32.0625 C 85.0625 -28.351562 87.0625 -26.5 91.0625 -26.5 C 94.476562 -26.5 98.148438 -27.648438 102.078125 -29.953125 C 106.015625 -32.253906 109.910156 -36.078125 113.765625 -41.421875 C 117.628906 -46.765625 120.972656 -53.960938 123.796875 -63.015625 C 125.128906 -67.316406 127.316406 -70.429688 130.359375 -72.359375 C 133.410156 -74.296875 136.492188 -75.265625 139.609375 -75.265625 Z M 66.125 -77.484375 C 67.90625 -83.128906 68.796875 -87.507812 68.796875 -90.625 C 68.796875 -94.476562 67.832031 -97.40625 65.90625 -99.40625 C 63.976562 -101.414062 61.972656 -102.421875 59.890625 -102.421875 C 58.109375 -102.421875 55.84375 -101.566406 53.09375 -99.859375 C 50.351562 -98.148438 47.945312 -93.882812 45.875 -87.0625 L 31.625 -42.3125 C 31.320312 -41.269531 31.019531 -40.117188 30.71875 -38.859375 C 30.425781 -37.597656 30.28125 -36.222656 30.28125 -34.734375 C 30.28125 -29.242188 32.726562 -26.5 37.625 -26.5 C 40 -26.5 42.96875 -27.648438 46.53125 -29.953125 C 50.09375 -32.253906 53.0625 -37.039062 55.4375 -44.3125 Z M 66.125 -77.484375 "/></g></g></g><g fill="#004aad" fill-opacity="1"><g transform="translate(360.669376, 238.160468)"><g><path d="M 112.890625 -64.578125 C 113.929688 -67.984375 115.710938 -70.390625 118.234375 -71.796875 C 120.753906 -73.210938 123.425781 -73.921875 126.25 -73.921875 C 129.8125 -73.921875 133.113281 -72.914062 136.15625 -70.90625 C 139.195312 -68.90625 140.71875 -66.203125 140.71875 -62.796875 C 140.71875 -61.753906 140.492188 -60.566406 140.046875 -59.234375 C 133.515625 -40.378906 125.015625 -25.789062 114.546875 -15.46875 C 104.085938 -5.15625 92.773438 0 80.609375 0 C 74.515625 0 68.867188 -1.332031 63.671875 -4 C 58.484375 -6.675781 54.367188 -10.425781 51.328125 -15.25 C 48.285156 -20.070312 46.765625 -25.675781 46.765625 -32.0625 C 46.765625 -36.519531 47.65625 -41.269531 49.4375 -46.3125 L 59.234375 -73.484375 C 59.671875 -75.109375 59.890625 -76.441406 59.890625 -77.484375 C 59.890625 -80.003906 59.109375 -81.929688 57.546875 -83.265625 C 55.992188 -84.609375 54.101562 -85.6875 51.875 -86.5 C 49.65625 -87.320312 47.503906 -88.03125 45.421875 -88.625 L 32.953125 -55.21875 C 31.617188 -51.65625 29.503906 -48.984375 26.609375 -47.203125 C 23.710938 -45.421875 20.707031 -44.53125 17.59375 -44.53125 C 14.476562 -44.53125 11.691406 -45.457031 9.234375 -47.3125 C 6.785156 -49.164062 5.5625 -51.953125 5.5625 -55.671875 C 5.5625 -57.148438 5.785156 -58.78125 6.234375 -60.5625 L 22.484375 -104.421875 C 18.773438 -109.023438 16.921875 -114.296875 16.921875 -120.234375 C 16.921875 -126.617188 18.773438 -132.257812 22.484375 -137.15625 C 26.203125 -142.050781 31.328125 -144.5 37.859375 -144.5 C 42.898438 -144.5 47.347656 -142.644531 51.203125 -138.9375 C 55.066406 -135.226562 57 -130.773438 57 -125.578125 C 57 -123.503906 56.703125 -121.648438 56.109375 -120.015625 C 59.222656 -119.117188 62.96875 -117.816406 67.34375 -116.109375 C 71.726562 -114.410156 76.070312 -112.222656 80.375 -109.546875 C 84.6875 -106.878906 88.25 -103.648438 91.0625 -99.859375 C 93.882812 -96.078125 95.296875 -91.515625 95.296875 -86.171875 C 95.296875 -84.242188 95.109375 -82.273438 94.734375 -80.265625 C 94.367188 -78.265625 93.816406 -76.148438 93.078125 -73.921875 L 79.9375 -37.40625 C 79.34375 -35.769531 79.046875 -34.140625 79.046875 -32.515625 C 79.046875 -31.023438 79.453125 -29.648438 80.265625 -28.390625 C 81.085938 -27.128906 82.238281 -26.5 83.71875 -26.5 C 88.46875 -26.5 93.476562 -30.132812 98.75 -37.40625 C 104.019531 -44.675781 108.734375 -53.734375 112.890625 -64.578125 Z M 112.890625 -64.578125 "/></g></g></g><g fill="#004aad" fill-opacity="1"><g transform="translate(465.977206, 238.160468)"><g><path d="M 30.5 -36.296875 C 30.351562 -35.703125 30.164062 -35.03125 29.9375 -34.28125 C 29.71875 -33.539062 29.609375 -32.953125 29.609375 -32.515625 C 29.609375 -30.878906 30.203125 -29.46875 31.390625 -28.28125 C 32.578125 -27.09375 34.285156 -26.5 36.515625 -26.5 C 41.710938 -26.5 47.316406 -29.503906 53.328125 -35.515625 C 59.335938 -41.523438 64.867188 -51.210938 69.921875 -64.578125 C 71.546875 -68.734375 73.691406 -71.703125 76.359375 -73.484375 C 79.035156 -75.265625 81.785156 -76.15625 84.609375 -76.15625 C 88.023438 -76.15625 91.066406 -75.003906 93.734375 -72.703125 C 96.410156 -70.398438 97.75 -67.46875 97.75 -63.90625 C 97.75 -62.570312 97.523438 -61.085938 97.078125 -59.453125 C 91.878906 -44.015625 85.679688 -31.988281 78.484375 -23.375 C 71.285156 -14.769531 63.828125 -8.722656 56.109375 -5.234375 C 48.390625 -1.742188 40.96875 0 33.84375 0 C 27.3125 0 21.257812 -1.222656 15.6875 -3.671875 C 10.125 -6.117188 5.671875 -9.71875 2.328125 -14.46875 C -1.003906 -19.21875 -2.671875 -25.007812 -2.671875 -31.84375 C -2.671875 -36.445312 -1.78125 -41.269531 0 -46.3125 L 46.3125 -178.578125 C 49.726562 -188.367188 55.59375 -193.265625 63.90625 -193.265625 C 67.320312 -193.265625 70.625 -192.003906 73.8125 -189.484375 C 77 -186.960938 78.59375 -183.546875 78.59375 -179.234375 C 78.59375 -176.859375 78.148438 -174.335938 77.265625 -171.671875 Z M 30.5 -36.296875 "/></g></g></g></g></g><g transform="matrix(1, 0, 0, 1, 640, 1098)"><g clip-path="url(#990ccd5999)"><g fill="#2dabe3" fill-opacity="0.4"><g transform="translate(1.167316, 108.378701)"><g><path d="M 27.859375 -26.46875 L 29.46875 -15.40625 L 31.84375 -25.375 L 48.453125 -83.984375 L 57.796875 -83.984375 L 74 -25.375 L 76.3125 -15.234375 L 78.09375 -26.53125 L 91.125 -83.984375 L 102.265625 -83.984375 L 81.90625 0 L 71.8125 0 L 54.5 -61.203125 L 53.171875 -67.59375 L 51.859375 -61.203125 L 33.921875 0 L 23.828125 0 L 3.515625 -83.984375 L 14.59375 -83.984375 Z M 27.859375 -26.46875 "/></g></g></g><g fill="#2dabe3" fill-opacity="0.4"><g transform="translate(120.254318, 108.378701)"><g><path d="M 57.21875 -38.8125 L 20.828125 -38.8125 L 20.828125 -9.0625 L 63.09375 -9.0625 L 63.09375 0 L 9.75 0 L 9.75 -83.984375 L 62.515625 -83.984375 L 62.515625 -74.859375 L 20.828125 -74.859375 L 20.828125 -47.875 L 57.21875 -47.875 Z M 57.21875 -38.8125 "/></g></g></g><g fill="#2dabe3" fill-opacity="0.4"><g transform="translate(201.680181, 108.378701)"><g><path d="M 56.125 -21.921875 L 20.9375 -21.921875 L 13.03125 0 L 1.609375 0 L 33.6875 -83.984375 L 43.375 -83.984375 L 75.5 0 L 64.140625 0 Z M 24.28125 -31.03125 L 52.828125 -31.03125 L 38.53125 -70.3125 Z M 24.28125 -31.03125 "/></g></g></g><g fill="#2dabe3" fill-opacity="0.4"><g transform="translate(293.025977, 108.378701)"><g><path d="M 67.765625 -74.859375 L 40.78125 -74.859375 L 40.78125 0 L 29.765625 0 L 29.765625 -74.859375 L 2.828125 -74.859375 L 2.828125 -83.984375 L 67.765625 -83.984375 Z M 67.765625 -74.859375 "/></g></g></g><g fill="#2dabe3" fill-opacity="0.4"><g transform="translate(377.796935, 108.378701)"><g><path d="M 74.296875 0 L 63.15625 0 L 63.15625 -38.8125 L 20.828125 -38.8125 L 20.828125 0 L 9.75 0 L 9.75 -83.984375 L 20.828125 -83.984375 L 20.828125 -47.875 L 63.15625 -47.875 L 63.15625 -83.984375 L 74.296875 -83.984375 Z M 74.296875 0 "/></g></g></g><g fill="#2dabe3" fill-opacity="0.4"><g transform="translate(476.29433, 108.378701)"><g><path d="M 57.21875 -38.8125 L 20.828125 -38.8125 L 20.828125 -9.0625 L 63.09375 -9.0625 L 63.09375 0 L 9.75 0 L 9.75 -83.984375 L 62.515625 -83.984375 L 62.515625 -74.859375 L 20.828125 -74.859375 L 20.828125 -47.875 L 57.21875 -47.875 Z M 57.21875 -38.8125 "/></g></g></g><g fill="#2dabe3" fill-opacity="0.4"><g transform="translate(557.720173, 108.378701)"><g><path d="M 40.546875 -33.96875 L 20.828125 -33.96875 L 20.828125 0 L 9.6875 0 L 9.6875 -83.984375 L 37.484375 -83.984375 C 46.953125 -83.984375 54.234375 -81.828125 59.328125 -77.515625 C 64.421875 -73.210938 66.96875 -66.945312 66.96875 -58.71875 C 66.96875 -53.488281 65.550781 -48.929688 62.71875 -45.046875 C 59.894531 -41.160156 55.96875 -38.257812 50.9375 -36.34375 L 70.65625 -0.6875 L 70.65625 0 L 58.78125 0 Z M 20.828125 -43.03125 L 37.84375 -43.03125 C 43.332031 -43.03125 47.703125 -44.453125 50.953125 -47.296875 C 54.203125 -50.140625 55.828125 -53.945312 55.828125 -58.71875 C 55.828125 -63.90625 54.28125 -67.882812 51.1875 -70.65625 C 48.09375 -73.425781 43.625 -74.828125 37.78125 -74.859375 L 20.828125 -74.859375 Z M 20.828125 -43.03125 "/></g></g></g><g fill="#cc0000" fill-opacity="1"><g transform="translate(1.167316, 108.378701)"><g><path d="M 27.859375 -26.46875 L 29.46875 -15.40625 L 31.84375 -25.375 L 48.453125 -83.984375 L 57.796875 -83.984375 L 74 -25.375 L 76.3125 -15.234375 L 78.09375 -26.53125 L 91.125 -83.984375 L 102.265625 -83.984375 L 81.90625 0 L 71.8125 0 L 54.5 -61.203125 L 53.171875 -67.59375 L 51.859375 -61.203125 L 33.921875 0 L 23.828125 0 L 3.515625 -83.984375 L 14.59375 -83.984375 Z M 27.859375 -26.46875 "/></g></g></g><g fill="#cc0000" fill-opacity="1"><g transform="translate(120.254318, 108.378701)"><g><path d="M 57.21875 -38.8125 L 20.828125 -38.8125 L 20.828125 -9.0625 L 63.09375 -9.0625 L 63.09375 0 L 9.75 0 L 9.75 -83.984375 L 62.515625 -83.984375 L 62.515625 -74.859375 L 20.828125 -74.859375 L 20.828125 -47.875 L 57.21875 -47.875 Z M 57.21875 -38.8125 "/></g></g></g><g fill="#cc0000" fill-opacity="1"><g transform="translate(201.680181, 108.378701)"><g><path d="M 56.125 -21.921875 L 20.9375 -21.921875 L 13.03125 0 L 1.609375 0 L 33.6875 -83.984375 L 43.375 -83.984375 L 75.5 0 L 64.140625 0 Z M 24.28125 -31.03125 L 52.828125 -31.03125 L 38.53125 -70.3125 Z M 24.28125 -31.03125 "/></g></g></g><g fill="#cc0000" fill-opacity="1"><g transform="translate(293.025977, 108.378701)"><g><path d="M 67.765625 -74.859375 L 40.78125 -74.859375 L 40.78125 0 L 29.765625 0 L 29.765625 -74.859375 L 2.828125 -74.859375 L 2.828125 -83.984375 L 67.765625 -83.984375 Z M 67.765625 -74.859375 "/></g></g></g><g fill="#cc0000" fill-opacity="1"><g transform="translate(377.796935, 108.378701)"><g><path d="M 74.296875 0 L 63.15625 0 L 63.15625 -38.8125 L 20.828125 -38.8125 L 20.828125 0 L 9.75 0 L 9.75 -83.984375 L 20.828125 -83.984375 L 20.828125 -47.875 L 63.15625 -47.875 L 63.15625 -83.984375 L 74.296875 -83.984375 Z M 74.296875 0 "/></g></g></g><g fill="#cc0000" fill-opacity="1"><g transform="translate(476.29433, 108.378701)"><g><path d="M 57.21875 -38.8125 L 20.828125 -38.8125 L 20.828125 -9.0625 L 63.09375 -9.0625 L 63.09375 0 L 9.75 0 L 9.75 -83.984375 L 62.515625 -83.984375 L 62.515625 -74.859375 L 20.828125 -74.859375 L 20.828125 -47.875 L 57.21875 -47.875 Z M 57.21875 -38.8125 "/></g></g></g><g fill="#cc0000" fill-opacity="1"><g transform="translate(557.720173, 108.378701)"><g><path d="M 40.546875 -33.96875 L 20.828125 -33.96875 L 20.828125 0 L 9.6875 0 L 9.6875 -83.984375 L 37.484375 -83.984375 C 46.953125 -83.984375 54.234375 -81.828125 59.328125 -77.515625 C 64.421875 -73.210938 66.96875 -66.945312 66.96875 -58.71875 C 66.96875 -53.488281 65.550781 -48.929688 62.71875 -45.046875 C 59.894531 -41.160156 55.96875 -38.257812 50.9375 -36.34375 L 70.65625 -0.6875 L 70.65625 0 L 58.78125 0 Z M 20.828125 -43.03125 L 37.84375 -43.03125 C 43.332031 -43.03125 47.703125 -44.453125 50.953125 -47.296875 C 54.203125 -50.140625 55.828125 -53.945312 55.828125 -58.71875 C 55.828125 -63.90625 54.28125 -67.882812 51.1875 -70.65625 C 48.09375 -73.425781 43.625 -74.828125 37.78125 -74.859375 L 20.828125 -74.859375 Z M 20.828125 -43.03125 "/></g></g></g></g></g></svg>