<svg xmlns="http://www.w3.org/2000/svg" xmlns:xlink="http://www.w3.org/1999/xlink" width="3780" zoomAndPan="magnify" viewBox="0 0 2835 949.499967" height="1266" preserveAspectRatio="xMidYMid meet" version="1.0"><defs><g/><clipPath id="80c7755ce6"><path d="M 0.746094 0 L 2834.253906 0 L 2834.253906 949 L 0.746094 949 Z M 0.746094 0 " clip-rule="nonzero"/></clipPath><clipPath id="e189ec7df1"><path d="M 0.746094 0 L 2833.9375 0 L 2833.9375 948.894531 L 0.746094 948.894531 Z M 0.746094 0 " clip-rule="nonzero"/></clipPath><clipPath id="9b7701300f"><path d="M 0.746094 0 L 2833.582031 0 L 2833.582031 200.6875 L 0.746094 200.6875 Z M 0.746094 0 " clip-rule="nonzero"/></clipPath><clipPath id="58c90c3df0"><path d="M 0.746094 0 L 2833.582031 0 L 2833.582031 200.6875 L 0.746094 200.6875 Z M 0.746094 0 " clip-rule="nonzero"/></clipPath><clipPath id="7d2fbce0ab"><rect x="0" width="2834" y="0" height="201"/></clipPath><clipPath id="02abdf9d19"><path d="M 655.21875 361.734375 L 776.640625 361.734375 L 776.640625 474.164062 L 655.21875 474.164062 Z M 655.21875 361.734375 " clip-rule="nonzero"/></clipPath><clipPath id="f72458646c"><path d="M 1300.910156 361.734375 L 1448.566406 361.734375 L 1448.566406 513 L 1300.910156 513 Z M 1300.910156 361.734375 " clip-rule="nonzero"/></clipPath><clipPath id="4584e1c7d1"><path d="M 1898.925781 437 L 1922 437 L 1922 444 L 1898.925781 444 Z M 1898.925781 437 " clip-rule="nonzero"/></clipPath><clipPath id="c802d40514"><path d="M 1931 491 L 1946 491 L 1946 512.386719 L 1931 512.386719 Z M 1931 491 " clip-rule="nonzero"/></clipPath><clipPath id="2d6d96910c"><path d="M 43.707031 83.613281 L 156.886719 83.613281 L 156.886719 178.804688 L 43.707031 178.804688 Z M 43.707031 83.613281 " clip-rule="nonzero"/></clipPath><clipPath id="dac5fc69c5"><rect x="0" width="364" y="0" height="205"/></clipPath><clipPath id="7ffabc8b3e"><path d="M 156.523438 83.613281 L 269.699219 83.613281 L 269.699219 178.804688 L 156.523438 178.804688 Z M 156.523438 83.613281 " clip-rule="nonzero"/></clipPath><clipPath id="35920a6a4e"><path d="M 269.335938 83.613281 L 382.515625 83.613281 L 382.515625 178.804688 L 269.335938 178.804688 Z M 269.335938 83.613281 " clip-rule="nonzero"/></clipPath><clipPath id="b65176734f"><rect x="0" width="2835" y="0" height="949"/></clipPath></defs><g clip-path="url(#80c7755ce6)"><path fill="#ffffff" d="M 0.746094 0 L 2834.253906 0 L 2834.253906 949 L 0.746094 949 Z M 0.746094 0 " fill-opacity="1" fill-rule="nonzero"/><g transform="matrix(1, 0, 0, 1, 0.000000000000000111, 0)"><g clip-path="url(#b65176734f)"><g clip-path="url(#e189ec7df1)"><path fill="#ffffff" d="M 0.746094 0 L 2833.9375 0 L 2833.9375 948.894531 L 0.746094 948.894531 Z M 0.746094 0 " fill-opacity="1" fill-rule="nonzero"/></g><g clip-path="url(#9b7701300f)"><g transform="matrix(1, 0, 0, 1, 0.000000000000000111, 0)"><g clip-path="url(#7d2fbce0ab)"><g clip-path="url(#58c90c3df0)"><path fill="#d9d9d9" d="M 0.746094 0 L 2833.914062 0 L 2833.914062 200.6875 L 0.746094 200.6875 Z M 0.746094 0 " fill-opacity="1" fill-rule="nonzero"/></g></g></g></g><g clip-path="url(#02abdf9d19)"><path fill="#1d1d1b" d="M 655.242188 380.160156 L 655.242188 474.164062 L 776.613281 474.164062 L 776.613281 361.734375 L 655.242188 361.734375 Z M 656.300781 380.160156 L 679.304688 380.160156 L 679.304688 392.53125 L 656.300781 392.53125 Z M 751.492188 392.53125 L 728.492188 392.53125 L 728.492188 380.160156 L 751.492188 380.160156 Z M 751.492188 405.960938 L 728.492188 405.960938 L 728.492188 393.589844 L 751.492188 393.589844 Z M 751.492188 419.390625 L 728.492188 419.390625 L 728.492188 407.019531 L 751.492188 407.019531 Z M 751.492188 432.816406 L 728.492188 432.816406 L 728.492188 420.445312 L 751.492188 420.445312 Z M 751.492188 446.246094 L 728.492188 446.246094 L 728.492188 433.875 L 751.492188 433.875 Z M 751.492188 459.675781 L 728.492188 459.675781 L 728.492188 447.304688 L 751.492188 447.304688 Z M 680.363281 447.304688 L 703.367188 447.304688 L 703.367188 459.675781 L 680.363281 459.675781 Z M 680.363281 433.875 L 703.367188 433.875 L 703.367188 446.246094 L 680.363281 446.246094 Z M 680.363281 420.445312 L 703.367188 420.445312 L 703.367188 432.820312 L 680.363281 432.820312 Z M 680.363281 407.019531 L 703.367188 407.019531 L 703.367188 419.390625 L 680.363281 419.390625 Z M 680.363281 393.589844 L 703.367188 393.589844 L 703.367188 405.960938 L 680.363281 405.960938 Z M 727.429688 405.960938 L 704.429688 405.960938 L 704.429688 393.589844 L 727.429688 393.589844 Z M 727.429688 419.390625 L 704.429688 419.390625 L 704.429688 407.019531 L 727.429688 407.019531 Z M 727.429688 432.816406 L 704.429688 432.816406 L 704.429688 420.445312 L 727.429688 420.445312 Z M 727.429688 446.246094 L 704.429688 446.246094 L 704.429688 433.875 L 727.429688 433.875 Z M 704.425781 447.304688 L 727.429688 447.304688 L 727.429688 459.675781 L 704.425781 459.675781 Z M 727.429688 392.53125 L 704.429688 392.53125 L 704.429688 380.160156 L 727.429688 380.160156 Z M 703.367188 392.53125 L 680.363281 392.53125 L 680.363281 380.160156 L 703.367188 380.160156 Z M 656.300781 393.589844 L 679.304688 393.589844 L 679.304688 405.960938 L 656.300781 405.960938 Z M 656.300781 407.019531 L 679.304688 407.019531 L 679.304688 419.390625 L 656.300781 419.390625 Z M 656.300781 420.445312 L 679.304688 420.445312 L 679.304688 432.820312 L 656.300781 432.820312 Z M 656.300781 433.875 L 679.304688 433.875 L 679.304688 446.246094 L 656.300781 446.246094 Z M 656.300781 447.304688 L 679.304688 447.304688 L 679.304688 459.675781 L 656.300781 459.675781 Z M 679.304688 473.105469 L 656.300781 473.105469 L 656.300781 460.734375 L 679.304688 460.734375 Z M 703.367188 473.105469 L 680.363281 473.105469 L 680.363281 460.734375 L 703.367188 460.734375 Z M 727.429688 473.105469 L 704.429688 473.105469 L 704.429688 460.734375 L 727.429688 460.734375 Z M 751.492188 473.105469 L 728.492188 473.105469 L 728.492188 460.734375 L 751.492188 460.734375 Z M 775.554688 473.105469 L 752.554688 473.105469 L 752.554688 460.734375 L 775.554688 460.734375 Z M 775.554688 459.675781 L 752.554688 459.675781 L 752.554688 447.304688 L 775.554688 447.304688 Z M 775.554688 446.246094 L 752.554688 446.246094 L 752.554688 433.875 L 775.554688 433.875 Z M 775.554688 432.816406 L 752.554688 432.816406 L 752.554688 420.445312 L 775.554688 420.445312 Z M 775.554688 419.390625 L 752.554688 419.390625 L 752.554688 407.019531 L 775.554688 407.019531 Z M 775.554688 405.960938 L 752.554688 405.960938 L 752.554688 393.589844 L 775.554688 393.589844 Z M 775.554688 392.53125 L 752.554688 392.53125 L 752.554688 380.160156 L 775.554688 380.160156 Z M 656.300781 362.792969 L 775.554688 362.792969 L 775.554688 379.105469 L 656.300781 379.105469 Z M 656.300781 362.792969 " fill-opacity="1" fill-rule="nonzero"/></g><g clip-path="url(#f72458646c)"><path fill="#000000" d="M 1447.945312 361.816406 C 1448.144531 361.796875 1448.402344 361.753906 1448.570312 361.859375 C 1447.757812 362.863281 1446.769531 363.746094 1445.875 364.675781 C 1444.476562 366.125 1443.121094 367.867188 1442.136719 369.613281 C 1440.722656 372.117188 1439.855469 375.03125 1438.945312 377.753906 C 1438.433594 379.253906 1437.902344 380.746094 1437.351562 382.234375 C 1435.367188 387.636719 1433.183594 392.796875 1430.464844 397.875 C 1429.234375 400.179688 1427.921875 402.480469 1426.414062 404.617188 C 1424.714844 407.015625 1422.738281 409.28125 1420.667969 411.363281 C 1418.765625 413.277344 1416.753906 415.050781 1414.523438 416.574219 C 1413.707031 417.128906 1412.835938 417.578125 1411.992188 418.078125 C 1414.386719 417.332031 1418.339844 415.46875 1419.917969 413.5 C 1419.492188 414.636719 1418.96875 415.738281 1418.472656 416.84375 C 1417.691406 418.589844 1416.90625 420.339844 1415.988281 422.023438 C 1408.765625 435.265625 1399.894531 444.355469 1385.15625 448.691406 C 1387.386719 448.429688 1390.316406 448.289062 1392.40625 447.546875 C 1392.203125 447.894531 1391.960938 448.222656 1391.722656 448.550781 C 1390.191406 450.617188 1388.539062 452.585938 1386.769531 454.457031 C 1379.476562 462.296875 1372.214844 465.878906 1361.75 467.871094 C 1358.179688 468.554688 1354.539062 468.84375 1350.953125 469.414062 C 1350.355469 469.941406 1349.835938 470.574219 1349.292969 471.160156 C 1348.492188 472.019531 1347.691406 472.875 1346.878906 473.726562 C 1344.132812 476.59375 1341.363281 479.441406 1338.574219 482.269531 L 1326.429688 494.285156 C 1324.582031 496.105469 1322.625 497.839844 1320.871094 499.75 C 1321.085938 500.148438 1321.199219 500.46875 1321.066406 500.914062 C 1320.800781 501.824219 1318.238281 504.316406 1317.335938 504.816406 C 1316.628906 505.210938 1316.011719 504.996094 1315.28125 504.789062 C 1314.476562 505.476562 1313.511719 506.0625 1312.644531 506.667969 C 1310.414062 508.222656 1308.152344 509.722656 1305.855469 511.171875 L 1304.523438 511.996094 C 1303.78125 512.449219 1302.78125 513.113281 1301.871094 512.855469 C 1301.574219 512.773438 1301.363281 512.59375 1301.214844 512.324219 C 1301.035156 511.988281 1300.917969 511.515625 1301.035156 511.148438 C 1301.507812 509.652344 1307.242188 502.929688 1308.691406 501.183594 C 1309.085938 500.714844 1309.945312 499.984375 1310.097656 499.425781 C 1309.773438 498.84375 1309.804688 498.386719 1309.832031 497.742188 C 1309.917969 497.578125 1310.015625 497.425781 1310.132812 497.28125 C 1310.796875 496.453125 1312.386719 494.667969 1313.3125 494.234375 C 1313.578125 494.109375 1313.867188 494.082031 1314.15625 494.046875 C 1317.667969 490.148438 1321.542969 486.570312 1325.21875 482.828125 C 1332.054688 475.941406 1338.785156 468.957031 1345.414062 461.871094 C 1345.390625 460.925781 1345.253906 459.972656 1345.183594 459.027344 C 1345.074219 457.425781 1345.042969 455.824219 1345.089844 454.21875 C 1345.402344 444.433594 1348.652344 437.8125 1353.507812 429.515625 C 1354.285156 428.183594 1354.972656 426.796875 1355.785156 425.484375 C 1355.613281 427.515625 1355.285156 429.699219 1355.441406 431.730469 C 1355.742188 430.6875 1355.960938 429.628906 1356.296875 428.59375 C 1358.839844 420.839844 1363.027344 413.492188 1369.226562 408.078125 C 1371.570312 406.027344 1373.992188 404.023438 1376.398438 402.039062 C 1377.832031 400.851562 1379.3125 399.71875 1380.679688 398.449219 C 1379.992188 400.628906 1379.378906 402.824219 1378.835938 405.042969 C 1379.09375 404.585938 1379.277344 404.074219 1379.503906 403.597656 C 1379.902344 402.765625 1380.328125 401.949219 1380.785156 401.148438 C 1382.679688 397.820312 1385.640625 393.824219 1388.175781 390.953125 C 1401.160156 376.246094 1421.207031 365.6875 1440.539062 362.585938 C 1442.988281 362.191406 1445.472656 361.976562 1447.945312 361.816406 Z M 1447.945312 361.816406 " fill-opacity="1" fill-rule="nonzero"/></g><path fill="#ffffff" d="M 1441.746094 365.875 C 1441.671875 366.128906 1441.410156 366.335938 1441.238281 366.542969 C 1440.394531 367.558594 1439.523438 368.972656 1439 370.183594 C 1437.992188 372.519531 1437.253906 375.011719 1436.414062 377.414062 C 1435.160156 381.046875 1433.796875 384.636719 1432.320312 388.1875 C 1427.863281 398.835938 1421.90625 408.625 1412.109375 415.144531 C 1410.066406 416.503906 1407.855469 417.769531 1405.59375 418.730469 C 1403.457031 419.621094 1401.277344 420.382812 1399.050781 421.007812 C 1397.183594 421.535156 1395.226562 421.964844 1393.425781 422.699219 C 1400.839844 422.613281 1407.464844 422.761719 1414.347656 419.566406 C 1413.011719 422.359375 1411.347656 425.167969 1409.585938 427.710938 C 1403.066406 437.125 1394.574219 443.640625 1383.449219 446.648438 C 1378.589844 447.960938 1373.589844 448.667969 1368.644531 449.566406 C 1374.5625 451.027344 1380.632812 451.128906 1386.679688 450.683594 C 1385.824219 451.980469 1384.511719 453.152344 1383.402344 454.234375 C 1381.742188 455.769531 1380.097656 457.3125 1378.261719 458.636719 C 1371.050781 463.832031 1362.402344 465.460938 1353.746094 466.484375 C 1357.761719 462.429688 1361.566406 458.179688 1365.152344 453.734375 C 1368.796875 449.382812 1372.230469 444.871094 1375.449219 440.195312 C 1378.414062 435.835938 1381.210938 431.355469 1384.042969 426.90625 C 1385.101562 425.242188 1386.125 423.546875 1387.230469 421.910156 C 1388.371094 420.234375 1389.582031 418.605469 1390.742188 416.941406 C 1392.96875 413.746094 1395.179688 410.527344 1397.503906 407.40625 C 1400.734375 403.132812 1404.105469 398.972656 1407.621094 394.933594 C 1411.78125 390.296875 1416.132812 385.847656 1420.675781 381.585938 C 1427.058594 375.628906 1433.953125 369.898438 1441.746094 365.875 Z M 1441.746094 365.875 " fill-opacity="1" fill-rule="nonzero"/><path fill="#ffffff" d="M 1442.117188 364.8125 C 1442.316406 364.785156 1442.515625 364.734375 1442.710938 364.816406 C 1437.65625 366.660156 1431.625 371.15625 1427.363281 374.511719 C 1425.777344 375.785156 1424.214844 377.078125 1422.667969 378.394531 C 1421.121094 379.710938 1419.589844 381.046875 1418.082031 382.402344 C 1416.570312 383.761719 1415.082031 385.140625 1413.609375 386.539062 C 1412.136719 387.9375 1410.683594 389.355469 1409.253906 390.796875 C 1407.820312 392.234375 1406.40625 393.691406 1405.015625 395.171875 C 1403.625 396.648438 1402.253906 398.144531 1400.902344 399.660156 C 1399.550781 401.175781 1398.222656 402.710938 1396.914062 404.261719 C 1395.605469 405.816406 1394.320312 407.386719 1393.054688 408.972656 C 1387.441406 415.914062 1382.273438 423.210938 1376.390625 429.933594 C 1367.390625 440.222656 1357.488281 449.742188 1347.8125 459.390625 C 1346.976562 451.132812 1348.664062 444.328125 1352.332031 436.972656 C 1352.675781 436.296875 1353.027344 435.636719 1353.421875 434.984375 C 1353.660156 436.386719 1354.105469 437.800781 1354.449219 439.183594 C 1354.957031 441.234375 1355.40625 443.332031 1356.039062 445.347656 C 1356.074219 444.550781 1356.113281 443.753906 1356.160156 442.957031 C 1356.746094 434.257812 1359.136719 425.894531 1363.75 418.460938 C 1365.105469 416.273438 1366.585938 414.199219 1368.355469 412.324219 C 1369.699219 410.898438 1371.191406 409.683594 1372.6875 408.429688 C 1374.160156 407.199219 1375.621094 405.953125 1377.066406 404.691406 C 1376.988281 405.046875 1376.914062 405.402344 1376.847656 405.757812 C 1376.78125 406.113281 1376.722656 406.46875 1376.667969 406.828125 C 1376.613281 407.183594 1376.5625 407.542969 1376.519531 407.902344 C 1376.476562 408.261719 1376.441406 408.621094 1376.410156 408.984375 C 1376.378906 409.34375 1376.351562 409.703125 1376.332031 410.066406 C 1376.3125 410.425781 1376.300781 410.789062 1376.292969 411.152344 C 1376.285156 411.511719 1376.28125 411.875 1376.285156 412.234375 C 1376.289062 412.597656 1376.300781 412.960938 1376.316406 413.320312 C 1376.332031 413.683594 1376.351562 414.042969 1376.378906 414.40625 C 1376.40625 414.765625 1376.441406 415.125 1376.480469 415.488281 C 1376.519531 415.847656 1376.5625 416.207031 1376.613281 416.5625 C 1376.664062 416.921875 1376.722656 417.28125 1376.785156 417.636719 C 1376.847656 417.992188 1376.914062 418.347656 1376.988281 418.703125 C 1377.0625 419.058594 1377.144531 419.410156 1377.226562 419.761719 C 1377.3125 420.113281 1377.40625 420.464844 1377.5 420.8125 C 1377.597656 421.160156 1377.699219 421.507812 1377.808594 421.855469 C 1377.582031 411.890625 1381.625 403.519531 1387.507812 395.707031 C 1388.699219 394.128906 1390.023438 392.65625 1391.363281 391.203125 C 1404.011719 377.484375 1423.636719 367.441406 1442.117188 364.8125 Z M 1442.117188 364.8125 " fill-opacity="1" fill-rule="nonzero"/><path fill="#ffffff" d="M 1410.050781 391.015625 C 1410.03125 391.199219 1410.039062 391.160156 1409.921875 391.28125 C 1405.714844 395.71875 1401.710938 400.332031 1397.910156 405.121094 C 1394.683594 409.199219 1391.714844 413.460938 1388.632812 417.644531 C 1387.457031 419.246094 1386.21875 420.800781 1385.03125 422.390625 C 1382.769531 425.460938 1380.527344 428.546875 1378.304688 431.644531 C 1377.417969 432.894531 1376.597656 434.1875 1375.710938 435.4375 C 1372.375 440.203125 1368.910156 444.871094 1365.316406 449.445312 C 1363.109375 452.242188 1360.742188 454.898438 1358.375 457.5625 C 1351.945312 464.671875 1345.335938 471.613281 1338.546875 478.386719 L 1326.886719 490.097656 C 1324.3125 492.664062 1321.765625 495.289062 1319.074219 497.730469 L 1317.800781 496.488281 L 1316.589844 495.3125 C 1318.410156 493.144531 1320.960938 490.855469 1323.011719 488.824219 C 1326.078125 485.78125 1329.070312 482.65625 1332.109375 479.585938 C 1335.507812 476.160156 1338.878906 472.707031 1342.21875 469.226562 L 1346.683594 464.542969 C 1347.503906 463.667969 1348.285156 462.761719 1349.125 461.90625 C 1355.882812 455.027344 1362.824219 448.347656 1369.25 441.152344 C 1371.539062 438.589844 1373.707031 435.902344 1375.875 433.246094 C 1377.367188 431.417969 1378.914062 429.628906 1380.378906 427.78125 C 1382.738281 424.8125 1385.027344 421.757812 1387.3125 418.730469 C 1391.542969 413.125 1395.679688 407.402344 1400.136719 401.972656 C 1403.269531 398.167969 1406.574219 394.515625 1410.050781 391.015625 Z M 1410.050781 391.015625 " fill-opacity="1" fill-rule="nonzero"/><path fill="#ffffff" d="M 1314.148438 496.652344 C 1314.417969 496.742188 1317.726562 500.113281 1318.210938 500.566406 C 1317.578125 501.117188 1317.003906 501.757812 1316.417969 502.359375 L 1316.3125 502.371094 C 1315.753906 502.011719 1315.25 501.386719 1314.777344 500.917969 C 1313.976562 500.132812 1313.164062 499.359375 1312.355469 498.582031 C 1312.878906 497.902344 1313.554688 497.28125 1314.148438 496.652344 Z M 1314.148438 496.652344 " fill-opacity="1" fill-rule="nonzero"/><path fill="#ffffff" d="M 1311.828125 501.457031 C 1312.347656 501.914062 1312.824219 502.417969 1313.285156 502.933594 C 1311.878906 504.300781 1309.601562 505.585938 1307.949219 506.703125 L 1306.855469 507.375 C 1308.605469 505.476562 1310.09375 503.359375 1311.828125 501.457031 Z M 1311.828125 501.457031 " fill-opacity="1" fill-rule="nonzero"/><path fill="#004aad" d="M 1963.738281 394.460938 C 1967.4375 390.195312 1970.621094 385.3125 1974.917969 381.769531 C 1999.191406 361.746094 2034.15625 369.601562 2048.082031 397.824219 C 2049.105469 399.902344 2050.976562 402.0625 2053.003906 403.0625 C 2074.289062 413.574219 2084.816406 433.871094 2080.34375 456.304688 C 2076.160156 477.261719 2058.128906 492.464844 2035.265625 493.636719 C 2026.242188 494.097656 2017.082031 494.042969 2008.113281 493.03125 C 1981.722656 490.050781 1964.296875 468.480469 1966.207031 441.960938 C 1966.640625 435.972656 1970.652344 431.777344 1975.632812 432.101562 C 1980.609375 432.421875 1984.050781 436.296875 1983.34375 442.582031 C 1981.386719 459.902344 1994.589844 477.597656 2017.421875 476.511719 C 2024.65625 476.167969 2031.996094 476.667969 2039.113281 475.617188 C 2053.324219 473.523438 2063.582031 461.542969 2064.144531 447.511719 C 2064.691406 433.789062 2055.019531 420.828125 2041.125 417.671875 C 2036.511719 416.625 2034.949219 414.519531 2033.859375 410.15625 C 2029.242188 391.648438 2008.246094 382.359375 1991.574219 391.542969 C 1987.039062 394.039062 1982.738281 395.117188 1977.707031 394.90625 C 1973.425781 394.730469 1969.121094 395.28125 1964.824219 395.503906 C 1964.460938 395.15625 1964.101562 394.804688 1963.738281 394.460938 Z M 1963.738281 394.460938 " fill-opacity="1" fill-rule="nonzero"/><path fill="#cc0000" d="M 1987.046875 491.941406 C 1958.015625 499.9375 1928.570312 475.503906 1929.84375 445.066406 C 1930.890625 420.023438 1949.933594 400.433594 1974.328125 399.296875 C 1998.769531 398.164062 2019.898438 415.613281 2023.457031 440.21875 C 2024.097656 444.640625 2023.886719 449.316406 2023.246094 453.753906 C 2022.425781 459.453125 2018.546875 462.039062 2013.25 461.34375 C 2008.628906 460.734375 2005.984375 457.617188 2006.402344 451.945312 C 2007.21875 440.984375 2004.789062 431.273438 1996.164062 423.996094 C 1986.535156 415.878906 1975.574219 414.175781 1964.15625 419.566406 C 1953.222656 424.730469 1947.226562 433.808594 1947.125 445.960938 C 1947.019531 458.503906 1953.027344 467.574219 1964.203125 473.519531 C 1968.195312 475.640625 1971.609375 478.886719 1975.164062 481.78125 C 1979.070312 484.960938 1982.832031 488.324219 1987.046875 491.941406 Z M 1987.046875 491.941406 " fill-opacity="1" fill-rule="nonzero"/><g clip-path="url(#4584e1c7d1)"><path fill="#cc0000" d="M 1909.824219 443.777344 C 1907.308594 443.777344 1904.738281 444.082031 1902.296875 443.648438 C 1901.070312 443.425781 1900.078125 441.859375 1898.980469 440.90625 C 1899.890625 439.921875 1900.761719 438.132812 1901.71875 438.089844 C 1907.257812 437.816406 1912.824219 437.785156 1918.359375 438.101562 C 1919.328125 438.160156 1920.179688 440.253906 1921.082031 441.40625 C 1920.023438 442.199219 1919.039062 443.523438 1917.898438 443.667969 C 1915.246094 444.007812 1912.519531 443.777344 1909.824219 443.777344 Z M 1909.824219 443.777344 " fill-opacity="1" fill-rule="nonzero"/></g><g clip-path="url(#c802d40514)"><path fill="#cc0000" d="M 1933.5625 512.359375 C 1932.855469 510.59375 1931.339844 508.632812 1931.816406 507.679688 C 1934.414062 502.519531 1937.421875 497.554688 1940.53125 492.671875 C 1940.972656 491.980469 1943.003906 491.628906 1943.832031 492.039062 C 1944.632812 492.441406 1945.527344 494.398438 1945.191406 495.0625 C 1942.46875 500.355469 1939.492188 505.519531 1936.503906 510.667969 C 1936.195312 511.199219 1935.304688 511.386719 1933.5625 512.359375 Z M 1933.5625 512.359375 " fill-opacity="1" fill-rule="nonzero"/></g><path fill="#cc0000" d="M 1955.574219 392.242188 C 1954.765625 393.605469 1954.414062 394.972656 1953.683594 395.21875 C 1952.695312 395.550781 1950.769531 395.441406 1950.363281 394.804688 C 1947.183594 389.824219 1944.1875 384.722656 1941.382812 379.519531 C 1940.984375 378.777344 1941.617188 376.882812 1942.378906 376.289062 C 1943.066406 375.753906 1945.238281 375.824219 1945.617188 376.390625 C 1949.082031 381.574219 1952.289062 386.925781 1955.574219 392.242188 Z M 1955.574219 392.242188 " fill-opacity="1" fill-rule="nonzero"/><path fill="#cc0000" d="M 1926.089844 469.605469 C 1926.046875 473.808594 1910.011719 483.242188 1907.90625 481.363281 C 1907.082031 480.632812 1907.117188 477.234375 1907.894531 476.699219 C 1912.351562 473.640625 1917.054688 470.894531 1921.898438 468.484375 C 1922.957031 467.964844 1924.921875 469.257812 1926.089844 469.605469 Z M 1926.089844 469.605469 " fill-opacity="1" fill-rule="nonzero"/><path fill="#cc0000" d="M 1932.410156 413.582031 C 1930.429688 414.082031 1928.445312 415.292969 1927.335938 414.738281 C 1922.503906 412.339844 1917.855469 409.535156 1913.332031 406.585938 C 1912.527344 406.0625 1912.171875 404.011719 1912.484375 402.914062 C 1912.675781 402.230469 1914.875 401.332031 1915.554688 401.691406 C 1920.78125 404.476562 1925.863281 407.519531 1930.941406 410.574219 C 1931.441406 410.882812 1931.566406 411.808594 1932.410156 413.582031 Z M 1932.410156 413.582031 " fill-opacity="1" fill-rule="nonzero"/><g clip-path="url(#2d6d96910c)"><path fill="#ff3131" d="M 138.609375 131.1875 C 138.609375 104.96875 117.375 83.734375 91.160156 83.734375 C 64.941406 83.734375 43.707031 104.96875 43.707031 131.1875 C 43.707031 157.402344 64.941406 178.636719 91.160156 178.636719 C 117.375 178.636719 138.609375 157.402344 138.609375 131.1875 Z M 186.058594 131.1875 C 186.058594 157.402344 207.292969 178.636719 233.507812 178.636719 C 259.722656 178.636719 280.957031 157.402344 280.957031 131.1875 C 280.957031 104.96875 259.722656 83.734375 233.507812 83.734375 C 207.292969 83.734375 186.058594 104.96875 186.058594 131.1875 Z M 328.40625 131.1875 C 328.40625 157.402344 349.640625 178.636719 375.855469 178.636719 C 402.074219 178.636719 423.304688 157.402344 423.304688 131.1875 C 423.304688 104.96875 402.074219 83.734375 375.855469 83.734375 C 349.640625 83.734375 328.40625 104.96875 328.40625 131.1875 Z M 328.40625 131.1875 " fill-opacity="1" fill-rule="nonzero"/></g><g fill="#281b14" fill-opacity="1"><g transform="translate(610.134428, 669.113254)"><g><path d="M 60.625 -75.625 L 60.625 -63.0625 L 38.796875 -63.0625 L 38.796875 0 L 23.890625 0 L 23.890625 -63.0625 L 2.0625 -63.0625 L 2.0625 -75.625 Z M 60.625 -75.625 "/></g></g></g><g fill="#281b14" fill-opacity="1"><g transform="translate(665.6847, 669.113254)"><g><path d="M 22.25 1.09375 C 18.59375 1.09375 15.414062 0.421875 12.71875 -0.921875 C 10.03125 -2.273438 7.960938 -4.253906 6.515625 -6.859375 C 5.066406 -9.460938 4.34375 -12.59375 4.34375 -16.25 C 4.34375 -19.625 5.066406 -22.457031 6.515625 -24.75 C 7.960938 -27.039062 10.203125 -28.921875 13.234375 -30.390625 C 16.273438 -31.859375 20.242188 -32.988281 25.140625 -33.78125 C 28.554688 -34.332031 31.148438 -34.9375 32.921875 -35.59375 C 34.703125 -36.25 35.898438 -36.988281 36.515625 -37.8125 C 37.140625 -38.632812 37.453125 -39.6875 37.453125 -40.96875 C 37.453125 -42.789062 36.8125 -44.1875 35.53125 -45.15625 C 34.257812 -46.125 32.140625 -46.609375 29.171875 -46.609375 C 26.003906 -46.609375 22.988281 -45.898438 20.125 -44.484375 C 17.257812 -43.066406 14.773438 -41.207031 12.671875 -38.90625 L 11.640625 -38.90625 L 5.640625 -47.953125 C 8.535156 -51.160156 12.066406 -53.660156 16.234375 -55.453125 C 20.410156 -57.242188 24.960938 -58.140625 29.890625 -58.140625 C 37.453125 -58.140625 42.921875 -56.535156 46.296875 -53.328125 C 49.671875 -50.117188 51.359375 -45.566406 51.359375 -39.671875 L 51.359375 -14.890625 C 51.359375 -12.335938 52.484375 -11.0625 54.734375 -11.0625 C 55.585938 -11.0625 56.429688 -11.21875 57.265625 -11.53125 L 57.984375 -11.328125 L 59.015625 -1.34375 C 58.222656 -0.820312 57.117188 -0.398438 55.703125 -0.078125 C 54.296875 0.242188 52.75 0.40625 51.0625 0.40625 C 47.644531 0.40625 44.976562 -0.242188 43.0625 -1.546875 C 41.144531 -2.859375 39.773438 -4.910156 38.953125 -7.703125 L 37.859375 -7.8125 C 35.066406 -1.875 29.863281 1.09375 22.25 1.09375 Z M 26.796875 -9.625 C 30.109375 -9.625 32.753906 -10.734375 34.734375 -12.953125 C 36.710938 -15.179688 37.703125 -18.28125 37.703125 -22.25 L 37.703125 -28.03125 L 36.71875 -28.25 C 35.863281 -27.550781 34.738281 -26.96875 33.34375 -26.5 C 31.945312 -26.039062 29.9375 -25.585938 27.3125 -25.140625 C 24.207031 -24.617188 21.972656 -23.726562 20.609375 -22.46875 C 19.242188 -21.21875 18.5625 -19.4375 18.5625 -17.125 C 18.5625 -14.675781 19.285156 -12.8125 20.734375 -11.53125 C 22.191406 -10.257812 24.210938 -9.625 26.796875 -9.625 Z M 26.796875 -9.625 "/></g></g></g><g fill="#281b14" fill-opacity="1"><g transform="translate(725.838404, 669.113254)"><g><path d="M 39.875 1.09375 C 32.601562 1.09375 27.191406 -1.632812 23.640625 -7.09375 L 22.546875 -6.875 L 22.546875 0 L 8.21875 0 L 8.21875 -79.96875 L 22.546875 -79.96875 L 22.546875 -50.328125 L 23.640625 -50.125 C 25.609375 -52.84375 27.925781 -54.859375 30.59375 -56.171875 C 33.269531 -57.484375 36.46875 -58.140625 40.1875 -58.140625 C 44.8125 -58.140625 48.847656 -57.050781 52.296875 -54.875 C 55.742188 -52.707031 58.429688 -49.40625 60.359375 -44.96875 C 62.296875 -40.539062 63.265625 -35.050781 63.265625 -28.5 C 63.265625 -22.019531 62.265625 -16.5625 60.265625 -12.125 C 58.265625 -7.695312 55.503906 -4.382812 51.984375 -2.1875 C 48.460938 0 44.425781 1.09375 39.875 1.09375 Z M 35.53125 -11.0625 C 39.738281 -11.0625 42.945312 -12.46875 45.15625 -15.28125 C 47.363281 -18.09375 48.46875 -22.5 48.46875 -28.5 C 48.46875 -34.53125 47.363281 -38.953125 45.15625 -41.765625 C 42.945312 -44.578125 39.738281 -45.984375 35.53125 -45.984375 C 31.5 -45.984375 28.300781 -44.535156 25.9375 -41.640625 C 23.570312 -38.742188 22.390625 -34.363281 22.390625 -28.5 C 22.390625 -22.632812 23.570312 -18.257812 25.9375 -15.375 C 28.300781 -12.5 31.5 -11.0625 35.53125 -11.0625 Z M 35.53125 -11.0625 "/></g></g></g><g fill="#281b14" fill-opacity="1"><g transform="translate(794.164323, 669.113254)"><g><path d="M 23.6875 1.09375 C 18.550781 1.09375 14.628906 -0.289062 11.921875 -3.0625 C 9.210938 -5.84375 7.859375 -10.0625 7.859375 -15.71875 L 7.859375 -79.96875 L 22.1875 -79.96875 L 22.1875 -16.296875 C 22.1875 -12.804688 23.632812 -11.0625 26.53125 -11.0625 C 27.363281 -11.0625 28.242188 -11.203125 29.171875 -11.484375 L 29.890625 -11.28125 L 31.1875 -0.265625 C 30.394531 0.148438 29.34375 0.476562 28.03125 0.71875 C 26.726562 0.96875 25.28125 1.09375 23.6875 1.09375 Z M 23.6875 1.09375 "/></g></g></g><g fill="#281b14" fill-opacity="1"><g transform="translate(826.956612, 669.113254)"><g><path d="M 56.375 -25.296875 L 19.703125 -25.296875 C 20.117188 -20.328125 21.535156 -16.710938 23.953125 -14.453125 C 26.367188 -12.191406 29.660156 -11.0625 33.828125 -11.0625 C 37.109375 -11.0625 39.765625 -11.675781 41.796875 -12.90625 C 43.828125 -14.132812 45.460938 -15.988281 46.703125 -18.46875 L 47.796875 -18.46875 L 57.3125 -12.359375 C 55.445312 -8.359375 52.632812 -5.113281 48.875 -2.625 C 45.125 -0.144531 40.109375 1.09375 33.828125 1.09375 C 27.929688 1.09375 22.835938 -0.0234375 18.546875 -2.265625 C 14.253906 -4.515625 10.941406 -7.851562 8.609375 -12.28125 C 6.285156 -16.71875 5.125 -22.125 5.125 -28.5 C 5.125 -34.976562 6.347656 -40.441406 8.796875 -44.890625 C 11.242188 -49.347656 14.550781 -52.671875 18.71875 -54.859375 C 22.894531 -57.046875 27.585938 -58.140625 32.796875 -58.140625 C 40.867188 -58.140625 47.050781 -56 51.34375 -51.71875 C 55.632812 -47.445312 57.78125 -41.175781 57.78125 -32.90625 C 57.78125 -29.894531 57.675781 -27.566406 57.46875 -25.921875 Z M 44.078125 -34.546875 C 43.929688 -38.898438 42.914062 -42.066406 41.03125 -44.046875 C 39.15625 -46.023438 36.410156 -47.015625 32.796875 -47.015625 C 25.554688 -47.015625 21.296875 -42.859375 20.015625 -34.546875 Z M 44.078125 -34.546875 "/></g></g></g><g fill="#281b14" fill-opacity="1"><g transform="translate(1230.156137, 669.113254)"><g><path d="M 44.953125 0 L 26.890625 0 L 1.34375 -75.625 L 17.21875 -75.625 L 35.59375 -19.25 L 36.875 -19.25 L 54.984375 -75.625 L 70.453125 -75.625 Z M 44.953125 0 "/></g></g></g><g fill="#281b14" fill-opacity="1"><g transform="translate(1297.602704, 669.113254)"><g><path d="M 56.375 -25.296875 L 19.703125 -25.296875 C 20.117188 -20.328125 21.535156 -16.710938 23.953125 -14.453125 C 26.367188 -12.191406 29.660156 -11.0625 33.828125 -11.0625 C 37.109375 -11.0625 39.765625 -11.675781 41.796875 -12.90625 C 43.828125 -14.132812 45.460938 -15.988281 46.703125 -18.46875 L 47.796875 -18.46875 L 57.3125 -12.359375 C 55.445312 -8.359375 52.632812 -5.113281 48.875 -2.625 C 45.125 -0.144531 40.109375 1.09375 33.828125 1.09375 C 27.929688 1.09375 22.835938 -0.0234375 18.546875 -2.265625 C 14.253906 -4.515625 10.941406 -7.851562 8.609375 -12.28125 C 6.285156 -16.71875 5.125 -22.125 5.125 -28.5 C 5.125 -34.976562 6.347656 -40.441406 8.796875 -44.890625 C 11.242188 -49.347656 14.550781 -52.671875 18.71875 -54.859375 C 22.894531 -57.046875 27.585938 -58.140625 32.796875 -58.140625 C 40.867188 -58.140625 47.050781 -56 51.34375 -51.71875 C 55.632812 -47.445312 57.78125 -41.175781 57.78125 -32.90625 C 57.78125 -29.894531 57.675781 -27.566406 57.46875 -25.921875 Z M 44.078125 -34.546875 C 43.929688 -38.898438 42.914062 -42.066406 41.03125 -44.046875 C 39.15625 -46.023438 36.410156 -47.015625 32.796875 -47.015625 C 25.554688 -47.015625 21.296875 -42.859375 20.015625 -34.546875 Z M 44.078125 -34.546875 "/></g></g></g><g fill="#281b14" fill-opacity="1"><g transform="translate(1359.618432, 669.113254)"><g><path d="M 8.21875 0 L 8.21875 -57.0625 L 22.140625 -57.0625 L 22.140625 -48.578125 L 23.21875 -48.359375 C 24.601562 -51.535156 26.414062 -53.863281 28.65625 -55.34375 C 30.894531 -56.832031 33.617188 -57.578125 36.828125 -57.578125 C 40.066406 -57.578125 42.535156 -57.023438 44.234375 -55.921875 L 41.796875 -43.546875 L 40.703125 -43.34375 C 39.773438 -43.726562 38.878906 -44.003906 38.015625 -44.171875 C 37.148438 -44.347656 36.097656 -44.4375 34.859375 -44.4375 C 30.859375 -44.4375 27.804688 -43.03125 25.703125 -40.21875 C 23.597656 -37.40625 22.546875 -32.894531 22.546875 -26.6875 L 22.546875 0 Z M 8.21875 0 "/></g></g></g><g fill="#281b14" fill-opacity="1"><g transform="translate(1404.358721, 669.113254)"><g><path d="M 26.6875 1.09375 C 22.789062 1.09375 19.222656 0.632812 15.984375 -0.28125 C 12.742188 -1.195312 9.972656 -2.457031 7.671875 -4.0625 C 5.378906 -5.664062 3.6875 -7.5 2.59375 -9.5625 L 10.546875 -18.15625 L 11.640625 -18.15625 C 13.535156 -15.601562 15.773438 -13.6875 18.359375 -12.40625 C 20.953125 -11.132812 23.765625 -10.5 26.796875 -10.5 C 29.585938 -10.5 31.6875 -11 33.09375 -12 C 34.507812 -13 35.21875 -14.429688 35.21875 -16.296875 C 35.21875 -17.742188 34.707031 -18.957031 33.6875 -19.9375 C 32.675781 -20.925781 31.035156 -21.695312 28.765625 -22.25 L 21.203125 -24.046875 C 15.546875 -25.398438 11.414062 -27.460938 8.8125 -30.234375 C 6.21875 -33.015625 4.921875 -36.539062 4.921875 -40.8125 C 4.921875 -44.363281 5.820312 -47.445312 7.625 -50.0625 C 9.4375 -52.6875 11.988281 -54.6875 15.28125 -56.0625 C 18.570312 -57.445312 22.410156 -58.140625 26.796875 -58.140625 C 31.929688 -58.140625 36.1875 -57.394531 39.5625 -55.90625 C 42.945312 -54.425781 45.585938 -52.445312 47.484375 -49.96875 L 39.828125 -41.6875 L 38.796875 -41.6875 C 37.210938 -43.476562 35.425781 -44.785156 33.4375 -45.609375 C 31.457031 -46.441406 29.242188 -46.859375 26.796875 -46.859375 C 21.140625 -46.859375 18.3125 -45.101562 18.3125 -41.59375 C 18.3125 -40.101562 18.835938 -38.894531 19.890625 -37.96875 C 20.941406 -37.039062 22.796875 -36.28125 25.453125 -35.6875 L 32.484375 -34.140625 C 38.273438 -32.898438 42.503906 -30.90625 45.171875 -28.15625 C 47.847656 -25.414062 49.1875 -21.738281 49.1875 -17.125 C 49.1875 -13.5 48.289062 -10.304688 46.5 -7.546875 C 44.707031 -4.785156 42.117188 -2.65625 38.734375 -1.15625 C 35.359375 0.34375 31.34375 1.09375 26.6875 1.09375 Z M 26.6875 1.09375 "/></g></g></g><g fill="#281b14" fill-opacity="1"><g transform="translate(1456.960898, 669.113254)"><g><path d="M 56.375 -25.296875 L 19.703125 -25.296875 C 20.117188 -20.328125 21.535156 -16.710938 23.953125 -14.453125 C 26.367188 -12.191406 29.660156 -11.0625 33.828125 -11.0625 C 37.109375 -11.0625 39.765625 -11.675781 41.796875 -12.90625 C 43.828125 -14.132812 45.460938 -15.988281 46.703125 -18.46875 L 47.796875 -18.46875 L 57.3125 -12.359375 C 55.445312 -8.359375 52.632812 -5.113281 48.875 -2.625 C 45.125 -0.144531 40.109375 1.09375 33.828125 1.09375 C 27.929688 1.09375 22.835938 -0.0234375 18.546875 -2.265625 C 14.253906 -4.515625 10.941406 -7.851562 8.609375 -12.28125 C 6.285156 -16.71875 5.125 -22.125 5.125 -28.5 C 5.125 -34.976562 6.347656 -40.441406 8.796875 -44.890625 C 11.242188 -49.347656 14.550781 -52.671875 18.71875 -54.859375 C 22.894531 -57.046875 27.585938 -58.140625 32.796875 -58.140625 C 40.867188 -58.140625 47.050781 -56 51.34375 -51.71875 C 55.632812 -47.445312 57.78125 -41.175781 57.78125 -32.90625 C 57.78125 -29.894531 57.675781 -27.566406 57.46875 -25.921875 Z M 44.078125 -34.546875 C 43.929688 -38.898438 42.914062 -42.066406 41.03125 -44.046875 C 39.15625 -46.023438 36.410156 -47.015625 32.796875 -47.015625 C 25.554688 -47.015625 21.296875 -42.859375 20.015625 -34.546875 Z M 44.078125 -34.546875 "/></g></g></g><g transform="matrix(1, 0, 0, 1, 1810, 558)"><g clip-path="url(#dac5fc69c5)"><g fill="#281b14" fill-opacity="1"><g transform="translate(61.405242, 93.405771)"><g><path d="M 32.359375 -62.671875 C 36.847656 -62.671875 40.679688 -61.847656 43.859375 -60.203125 C 47.046875 -58.554688 49.453125 -56.253906 51.078125 -53.296875 C 52.710938 -50.335938 53.53125 -46.898438 53.53125 -42.984375 C 53.53125 -39.078125 52.710938 -35.648438 51.078125 -32.703125 C 49.453125 -29.753906 47.046875 -27.457031 43.859375 -25.8125 C 40.679688 -24.175781 36.847656 -23.359375 32.359375 -23.359375 L 20.53125 -23.359375 L 20.53125 0 L 8.140625 0 L 8.140625 -62.671875 Z M 30.734375 -33.171875 C 37.617188 -33.171875 41.0625 -36.441406 41.0625 -42.984375 C 41.0625 -49.554688 37.617188 -52.84375 30.734375 -52.84375 L 20.53125 -52.84375 L 20.53125 -33.171875 Z M 30.734375 -33.171875 "/></g></g></g><g fill="#281b14" fill-opacity="1"><g transform="translate(116.179725, 93.405771)"><g><path d="M 46.71875 -20.953125 L 16.328125 -20.953125 C 16.671875 -16.835938 17.84375 -13.84375 19.84375 -11.96875 C 21.84375 -10.101562 24.570312 -9.171875 28.03125 -9.171875 C 30.75 -9.171875 32.945312 -9.675781 34.625 -10.6875 C 36.3125 -11.707031 37.671875 -13.242188 38.703125 -15.296875 L 39.609375 -15.296875 L 47.484375 -10.25 C 45.941406 -6.925781 43.613281 -4.234375 40.5 -2.171875 C 37.382812 -0.117188 33.226562 0.90625 28.03125 0.90625 C 23.144531 0.90625 18.921875 -0.0195312 15.359375 -1.875 C 11.804688 -3.738281 9.066406 -6.503906 7.140625 -10.171875 C 5.210938 -13.847656 4.25 -18.328125 4.25 -23.609375 C 4.25 -28.984375 5.257812 -33.515625 7.28125 -37.203125 C 9.3125 -40.890625 12.054688 -43.640625 15.515625 -45.453125 C 18.972656 -47.265625 22.859375 -48.171875 27.171875 -48.171875 C 33.859375 -48.171875 38.976562 -46.398438 42.53125 -42.859375 C 46.09375 -39.316406 47.875 -34.117188 47.875 -27.265625 C 47.875 -24.773438 47.789062 -22.84375 47.625 -21.46875 Z M 36.515625 -28.625 C 36.398438 -32.226562 35.5625 -34.851562 34 -36.5 C 32.445312 -38.144531 30.171875 -38.96875 27.171875 -38.96875 C 21.171875 -38.96875 17.644531 -35.519531 16.59375 -28.625 Z M 36.515625 -28.625 "/></g></g></g><g fill="#281b14" fill-opacity="1"><g transform="translate(167.568336, 93.405771)"><g><path d="M 18.4375 0.90625 C 15.40625 0.90625 12.773438 0.347656 10.546875 -0.765625 C 8.316406 -1.878906 6.597656 -3.515625 5.390625 -5.671875 C 4.191406 -7.835938 3.59375 -10.429688 3.59375 -13.453125 C 3.59375 -16.253906 4.191406 -18.601562 5.390625 -20.5 C 6.597656 -22.40625 8.457031 -23.960938 10.96875 -25.171875 C 13.488281 -26.390625 16.773438 -27.328125 20.828125 -27.984375 C 23.660156 -28.441406 25.8125 -28.941406 27.28125 -29.484375 C 28.75 -30.023438 29.738281 -30.640625 30.25 -31.328125 C 30.769531 -32.015625 31.03125 -32.890625 31.03125 -33.953125 C 31.03125 -35.460938 30.5 -36.617188 29.4375 -37.421875 C 28.382812 -38.222656 26.628906 -38.625 24.171875 -38.625 C 21.546875 -38.625 19.046875 -38.035156 16.671875 -36.859375 C 14.296875 -35.691406 12.238281 -34.148438 10.5 -32.234375 L 9.640625 -32.234375 L 4.671875 -39.734375 C 7.066406 -42.390625 9.992188 -44.457031 13.453125 -45.9375 C 16.910156 -47.425781 20.6875 -48.171875 24.78125 -48.171875 C 31.03125 -48.171875 35.554688 -46.84375 38.359375 -44.1875 C 41.160156 -41.53125 42.5625 -37.757812 42.5625 -32.875 L 42.5625 -12.34375 C 42.5625 -10.226562 43.488281 -9.171875 45.34375 -9.171875 C 46.0625 -9.171875 46.765625 -9.300781 47.453125 -9.5625 L 48.046875 -9.390625 L 48.90625 -1.109375 C 48.25 -0.679688 47.332031 -0.332031 46.15625 -0.0625 C 44.988281 0.207031 43.707031 0.34375 42.3125 0.34375 C 39.476562 0.34375 37.265625 -0.195312 35.671875 -1.28125 C 34.085938 -2.375 32.957031 -4.078125 32.28125 -6.390625 L 31.375 -6.46875 C 29.0625 -1.550781 24.75 0.90625 18.4375 0.90625 Z M 22.203125 -7.96875 C 24.941406 -7.96875 27.132812 -8.890625 28.78125 -10.734375 C 30.425781 -12.578125 31.25 -15.144531 31.25 -18.4375 L 31.25 -23.234375 L 30.4375 -23.40625 C 29.71875 -22.832031 28.78125 -22.351562 27.625 -21.96875 C 26.46875 -21.582031 24.800781 -21.203125 22.625 -20.828125 C 20.0625 -20.398438 18.210938 -19.664062 17.078125 -18.625 C 15.953125 -17.582031 15.390625 -16.101562 15.390625 -14.1875 C 15.390625 -12.15625 15.988281 -10.609375 17.1875 -9.546875 C 18.382812 -8.492188 20.054688 -7.96875 22.203125 -7.96875 Z M 22.203125 -7.96875 "/></g></g></g><g fill="#281b14" fill-opacity="1"><g transform="translate(217.414003, 93.405771)"><g><path d="M 6.8125 0 L 6.8125 -47.28125 L 18.34375 -47.28125 L 18.34375 -40.25 L 19.25 -40.078125 C 20.382812 -42.703125 21.878906 -44.628906 23.734375 -45.859375 C 25.597656 -47.085938 27.859375 -47.703125 30.515625 -47.703125 C 33.203125 -47.703125 35.242188 -47.242188 36.640625 -46.328125 L 34.625 -36.09375 L 33.734375 -35.921875 C 32.960938 -36.234375 32.21875 -36.457031 31.5 -36.59375 C 30.789062 -36.738281 29.921875 -36.8125 28.890625 -36.8125 C 25.578125 -36.8125 23.046875 -35.644531 21.296875 -33.3125 C 19.554688 -30.988281 18.6875 -27.253906 18.6875 -22.109375 L 18.6875 0 Z M 6.8125 0 "/></g></g></g><g fill="#281b14" fill-opacity="1"><g transform="translate(254.487513, 93.405771)"><g><path d="M 19.625 0.90625 C 15.375 0.90625 12.125 -0.242188 9.875 -2.546875 C 7.632812 -4.847656 6.515625 -8.34375 6.515625 -13.03125 L 6.515625 -66.265625 L 18.390625 -66.265625 L 18.390625 -13.5 C 18.390625 -10.613281 19.585938 -9.171875 21.984375 -9.171875 C 22.671875 -9.171875 23.398438 -9.285156 24.171875 -9.515625 L 24.78125 -9.34375 L 25.84375 -0.21875 C 25.1875 0.125 24.316406 0.394531 23.234375 0.59375 C 22.148438 0.800781 20.945312 0.90625 19.625 0.90625 Z M 19.625 0.90625 "/></g></g></g><g fill="#281b14" fill-opacity="1"><g transform="translate(281.666188, 93.405771)"><g/></g></g><g fill="#281b14" fill-opacity="1"><g transform="translate(0.966191, 178.494018)"><g><path d="M 29.921875 0 L 16.078125 0 L 1.71875 -62.671875 L 14.0625 -62.671875 L 23.53125 -18.609375 L 24.609375 -18.609375 L 35.828125 -62.671875 L 46.421875 -62.671875 L 57.859375 -18.609375 L 58.9375 -18.609375 L 68.453125 -62.671875 L 80.359375 -62.671875 L 66.046875 0 L 52.15625 0 L 41.1875 -40.421875 L 40.296875 -40.421875 Z M 29.921875 0 "/></g></g></g><g fill="#281b14" fill-opacity="1"><g transform="translate(81.584999, 178.494018)"><g><path d="M 46.71875 -20.953125 L 16.328125 -20.953125 C 16.671875 -16.835938 17.84375 -13.84375 19.84375 -11.96875 C 21.84375 -10.101562 24.570312 -9.171875 28.03125 -9.171875 C 30.75 -9.171875 32.945312 -9.675781 34.625 -10.6875 C 36.3125 -11.707031 37.671875 -13.242188 38.703125 -15.296875 L 39.609375 -15.296875 L 47.484375 -10.25 C 45.941406 -6.925781 43.613281 -4.234375 40.5 -2.171875 C 37.382812 -0.117188 33.226562 0.90625 28.03125 0.90625 C 23.144531 0.90625 18.921875 -0.0195312 15.359375 -1.875 C 11.804688 -3.738281 9.066406 -6.503906 7.140625 -10.171875 C 5.210938 -13.847656 4.25 -18.328125 4.25 -23.609375 C 4.25 -28.984375 5.257812 -33.515625 7.28125 -37.203125 C 9.3125 -40.890625 12.054688 -43.640625 15.515625 -45.453125 C 18.972656 -47.265625 22.859375 -48.171875 27.171875 -48.171875 C 33.859375 -48.171875 38.976562 -46.398438 42.53125 -42.859375 C 46.09375 -39.316406 47.875 -34.117188 47.875 -27.265625 C 47.875 -24.773438 47.789062 -22.84375 47.625 -21.46875 Z M 36.515625 -28.625 C 36.398438 -32.226562 35.5625 -34.851562 34 -36.5 C 32.445312 -38.144531 30.171875 -38.96875 27.171875 -38.96875 C 21.171875 -38.96875 17.644531 -35.519531 16.59375 -28.625 Z M 36.515625 -28.625 "/></g></g></g><g fill="#281b14" fill-opacity="1"><g transform="translate(132.97361, 178.494018)"><g><path d="M 18.4375 0.90625 C 15.40625 0.90625 12.773438 0.347656 10.546875 -0.765625 C 8.316406 -1.878906 6.597656 -3.515625 5.390625 -5.671875 C 4.191406 -7.835938 3.59375 -10.429688 3.59375 -13.453125 C 3.59375 -16.253906 4.191406 -18.601562 5.390625 -20.5 C 6.597656 -22.40625 8.457031 -23.960938 10.96875 -25.171875 C 13.488281 -26.390625 16.773438 -27.328125 20.828125 -27.984375 C 23.660156 -28.441406 25.8125 -28.941406 27.28125 -29.484375 C 28.75 -30.023438 29.738281 -30.640625 30.25 -31.328125 C 30.769531 -32.015625 31.03125 -32.890625 31.03125 -33.953125 C 31.03125 -35.460938 30.5 -36.617188 29.4375 -37.421875 C 28.382812 -38.222656 26.628906 -38.625 24.171875 -38.625 C 21.546875 -38.625 19.046875 -38.035156 16.671875 -36.859375 C 14.296875 -35.691406 12.238281 -34.148438 10.5 -32.234375 L 9.640625 -32.234375 L 4.671875 -39.734375 C 7.066406 -42.390625 9.992188 -44.457031 13.453125 -45.9375 C 16.910156 -47.425781 20.6875 -48.171875 24.78125 -48.171875 C 31.03125 -48.171875 35.554688 -46.84375 38.359375 -44.1875 C 41.160156 -41.53125 42.5625 -37.757812 42.5625 -32.875 L 42.5625 -12.34375 C 42.5625 -10.226562 43.488281 -9.171875 45.34375 -9.171875 C 46.0625 -9.171875 46.765625 -9.300781 47.453125 -9.5625 L 48.046875 -9.390625 L 48.90625 -1.109375 C 48.25 -0.679688 47.332031 -0.332031 46.15625 -0.0625 C 44.988281 0.207031 43.707031 0.34375 42.3125 0.34375 C 39.476562 0.34375 37.265625 -0.195312 35.671875 -1.28125 C 34.085938 -2.375 32.957031 -4.078125 32.28125 -6.390625 L 31.375 -6.46875 C 29.0625 -1.550781 24.75 0.90625 18.4375 0.90625 Z M 22.203125 -7.96875 C 24.941406 -7.96875 27.132812 -8.890625 28.78125 -10.734375 C 30.425781 -12.578125 31.25 -15.144531 31.25 -18.4375 L 31.25 -23.234375 L 30.4375 -23.40625 C 29.71875 -22.832031 28.78125 -22.351562 27.625 -21.96875 C 26.46875 -21.582031 24.800781 -21.203125 22.625 -20.828125 C 20.0625 -20.398438 18.210938 -19.664062 17.078125 -18.625 C 15.953125 -17.582031 15.390625 -16.101562 15.390625 -14.1875 C 15.390625 -12.15625 15.988281 -10.609375 17.1875 -9.546875 C 18.382812 -8.492188 20.054688 -7.96875 22.203125 -7.96875 Z M 22.203125 -7.96875 "/></g></g></g><g fill="#281b14" fill-opacity="1"><g transform="translate(182.262098, 178.494018)"><g><path d="M 32.625 -11.265625 L 35.703125 -2.484375 C 34.421875 -1.429688 32.804688 -0.601562 30.859375 0 C 28.921875 0.601562 26.722656 0.90625 24.265625 0.90625 C 19.148438 0.90625 15.257812 -0.484375 12.59375 -3.265625 C 9.9375 -6.054688 8.609375 -10.113281 8.609375 -15.4375 L 8.609375 -37.890625 L 1.421875 -37.890625 L 1.421875 -47.3125 L 8.609375 -47.3125 L 8.609375 -56.53125 L 20.484375 -58.46875 L 20.484375 -47.3125 L 33.90625 -47.3125 L 33.90625 -37.890625 L 20.484375 -37.890625 L 20.484375 -16.28125 C 20.484375 -13.9375 20.96875 -12.226562 21.9375 -11.15625 C 22.914062 -10.09375 24.332031 -9.5625 26.1875 -9.5625 C 28.300781 -9.5625 30.144531 -10.128906 31.71875 -11.265625 Z M 32.625 -11.265625 "/></g></g></g><g fill="#281b14" fill-opacity="1"><g transform="translate(218.992731, 178.494018)"><g><path d="M 6.8125 0 L 6.8125 -66.265625 L 18.6875 -66.265625 L 18.6875 -41.109375 L 19.59375 -40.9375 C 21.164062 -43.25 23.09375 -45.03125 25.375 -46.28125 C 27.65625 -47.539062 30.410156 -48.171875 33.640625 -48.171875 C 44.078125 -48.171875 49.296875 -42.257812 49.296875 -30.4375 L 49.296875 0 L 37.421875 0 L 37.421875 -28.9375 C 37.421875 -32.164062 36.773438 -34.503906 35.484375 -35.953125 C 34.203125 -37.410156 32.203125 -38.140625 29.484375 -38.140625 C 26.171875 -38.140625 23.539062 -37.03125 21.59375 -34.8125 C 19.65625 -32.601562 18.6875 -29.15625 18.6875 -24.46875 L 18.6875 0 Z M 6.8125 0 "/></g></g></g><g fill="#281b14" fill-opacity="1"><g transform="translate(274.367295, 178.494018)"><g><path d="M 46.71875 -20.953125 L 16.328125 -20.953125 C 16.671875 -16.835938 17.84375 -13.84375 19.84375 -11.96875 C 21.84375 -10.101562 24.570312 -9.171875 28.03125 -9.171875 C 30.75 -9.171875 32.945312 -9.675781 34.625 -10.6875 C 36.3125 -11.707031 37.671875 -13.242188 38.703125 -15.296875 L 39.609375 -15.296875 L 47.484375 -10.25 C 45.941406 -6.925781 43.613281 -4.234375 40.5 -2.171875 C 37.382812 -0.117188 33.226562 0.90625 28.03125 0.90625 C 23.144531 0.90625 18.921875 -0.0195312 15.359375 -1.875 C 11.804688 -3.738281 9.066406 -6.503906 7.140625 -10.171875 C 5.210938 -13.847656 4.25 -18.328125 4.25 -23.609375 C 4.25 -28.984375 5.257812 -33.515625 7.28125 -37.203125 C 9.3125 -40.890625 12.054688 -43.640625 15.515625 -45.453125 C 18.972656 -47.265625 22.859375 -48.171875 27.171875 -48.171875 C 33.859375 -48.171875 38.976562 -46.398438 42.53125 -42.859375 C 46.09375 -39.316406 47.875 -34.117188 47.875 -27.265625 C 47.875 -24.773438 47.789062 -22.84375 47.625 -21.46875 Z M 36.515625 -28.625 C 36.398438 -32.226562 35.5625 -34.851562 34 -36.5 C 32.445312 -38.144531 30.171875 -38.96875 27.171875 -38.96875 C 21.171875 -38.96875 17.644531 -35.519531 16.59375 -28.625 Z M 36.515625 -28.625 "/></g></g></g><g fill="#281b14" fill-opacity="1"><g transform="translate(325.755886, 178.494018)"><g><path d="M 6.8125 0 L 6.8125 -47.28125 L 18.34375 -47.28125 L 18.34375 -40.25 L 19.25 -40.078125 C 20.382812 -42.703125 21.878906 -44.628906 23.734375 -45.859375 C 25.597656 -47.085938 27.859375 -47.703125 30.515625 -47.703125 C 33.203125 -47.703125 35.242188 -47.242188 36.640625 -46.328125 L 34.625 -36.09375 L 33.734375 -35.921875 C 32.960938 -36.234375 32.21875 -36.457031 31.5 -36.59375 C 30.789062 -36.738281 29.921875 -36.8125 28.890625 -36.8125 C 25.578125 -36.8125 23.046875 -35.644531 21.296875 -33.3125 C 19.554688 -30.988281 18.6875 -27.253906 18.6875 -22.109375 L 18.6875 0 Z M 6.8125 0 "/></g></g></g></g></g><g clip-path="url(#7ffabc8b3e)"><path fill="#004aad" d="M 251.421875 131.1875 C 251.421875 104.96875 230.1875 83.734375 203.972656 83.734375 C 177.757812 83.734375 156.523438 104.96875 156.523438 131.1875 C 156.523438 157.402344 177.757812 178.636719 203.972656 178.636719 C 230.1875 178.636719 251.421875 157.402344 251.421875 131.1875 Z M 298.871094 131.1875 C 298.871094 157.402344 320.105469 178.636719 346.320312 178.636719 C 372.539062 178.636719 393.769531 157.402344 393.769531 131.1875 C 393.769531 104.96875 372.539062 83.734375 346.320312 83.734375 C 320.105469 83.734375 298.871094 104.96875 298.871094 131.1875 Z M 441.222656 131.1875 C 441.222656 157.402344 462.453125 178.636719 488.671875 178.636719 C 514.886719 178.636719 536.121094 157.402344 536.121094 131.1875 C 536.121094 104.96875 514.886719 83.734375 488.671875 83.734375 C 462.453125 83.734375 441.222656 104.96875 441.222656 131.1875 Z M 441.222656 131.1875 " fill-opacity="1" fill-rule="nonzero"/></g><g clip-path="url(#35920a6a4e)"><path fill="#ffde59" d="M 364.238281 131.1875 C 364.238281 104.96875 343.003906 83.734375 316.785156 83.734375 C 290.570312 83.734375 269.335938 104.96875 269.335938 131.1875 C 269.335938 157.402344 290.570312 178.636719 316.785156 178.636719 C 343.003906 178.636719 364.238281 157.402344 364.238281 131.1875 Z M 411.6875 131.1875 C 411.6875 157.402344 432.921875 178.636719 459.136719 178.636719 C 485.351562 178.636719 506.585938 157.402344 506.585938 131.1875 C 506.585938 104.96875 485.351562 83.734375 459.136719 83.734375 C 432.921875 83.734375 411.6875 104.96875 411.6875 131.1875 Z M 554.035156 131.1875 C 554.035156 157.402344 575.269531 178.636719 601.484375 178.636719 C 627.699219 178.636719 648.933594 157.402344 648.933594 131.1875 C 648.933594 104.96875 627.699219 83.734375 601.484375 83.734375 C 575.269531 83.734375 554.035156 104.96875 554.035156 131.1875 Z M 554.035156 131.1875 " fill-opacity="1" fill-rule="nonzero"/></g></g></g></g></svg>